<?xml version="1.0" encoding="iso-8859-1"?>
<!-- Generator: Adobe Illustrator 16.0.0, SVG Export Plug-In . SVG Version: 6.00 Build 0)  -->
<!DOCTYPE svg PUBLIC "-//W3C//DTD SVG 1.1//EN" "http://www.w3.org/Graphics/SVG/1.1/DTD/svg11.dtd">
<svg version="1.1" id="Capa_1" xmlns="http://www.w3.org/2000/svg" xmlns:xlink="http://www.w3.org/1999/xlink" x="0px" y="0px"
	 width="985.566px" height="985.566px" viewBox="0 0 985.566 985.566" style="enable-background:new 0 0 985.566 985.566;"
	 xml:space="preserve">
<g>
	<g>
		<path d="M152.701,883.4l341-100.101c3.1-0.899,5.9-2.1,8.6-3.6h-28.401h-212.7h-42.9l-88.4,25.899
			c-21.5,6.301-33.8,28.801-27.5,50.301C108.701,877.4,131.201,889.7,152.701,883.4z"/>
		<path d="M852.702,970.7c14.199-17.3,11.6-42.9-5.7-57l-163.7-134h-1.4h-13.5h-48.199h-64.9l240.3,196.7
			C813.002,990.6,838.502,988,852.702,970.7z"/>
		<path d="M686.702,754.7c-7.801-16-49.7-81.8-65.4-122.2h-181.1c-39.101,30.1-148.301,98.9-179,122.2h42.2h218.101h3.3h128H686.702
			z"/>
		<path d="M184.301,132.8c0.7,4.8,31,3.2,32.3,7.8c1.4,4.7-25,19.6-23,24s30.6-5.7,33.2-1.7c2.6,4.1-18.4,25.9-15.3,29.5
			c3.2,3.6,27.7-14.1,31.4-10.9c3.6,3.2-10.4,30-6.4,32.6s22.6-21.3,27-19.3c4.4,2-1.6,31.7,3.1,33.1c4,1.2,12.9-20.1,18.3-25.1
			c0.801-0.8,1.5-1.2,2.2-1.1c2.2,0.3,3.9,6.9,5.601,13.8c2,8.2,4,17,6.699,17c0.801,0,1.601-0.9,2.301-2.3
			c1.699-3.4,3.199-10.2,4.699-16.2c1.601-6.4,3.2-12.1,5.301-12.3c0.899-0.1,2,0.7,3.199,2.1l122.7,201.2
			c-5,9.1-7.899,20-7.899,31.6c0,16.4,8.199,31.7,13.5,47.5c5.899,17.4,17.1,90,13.6,123.4h158.5c-1.6-35.1,4.5-73.5,10.5-107.9
			c3.6-21,17.1-41.8,17.1-62.899c0-0.5,0-0.9,0-1.4c23.2,17.8,70.5,54,70.5,54c5.4,3.5,12.5,5.3,19.101,5.4c0.1,0,0.1,0,0.2,0
			c16.699,0,30.3-13.5,30.399-30.3l0.3-90.601c1.9,7.7,3.801,15.4,6.301,15.4s4.399-7.6,6.199-15.2c1.9-7.6,3.7-15.3,6.101-15.6
			c1.6-0.2,3.899,2.8,6.5,6.8c5,8.1,10.899,20.2,14,19.3c4.7-1.4-1.3-31.1,3.1-33.1c4.4-2,23,21.9,27,19.3
			c4.101-2.6-10-29.5-6.399-32.6c3.6-3.2,28.199,14.6,31.399,10.9c3.2-3.6-17.899-25.4-15.3-29.5c2.6-4,31.2,6.1,33.2,1.7
			c2-4.4-24.3-19.3-23-24c1.3-4.6,31.6-3,32.3-7.8c0.7-4.7-28.8-11.6-28.8-16.5s29.5-11.8,28.8-16.5c-0.7-4.8-31-3.2-32.3-7.8
			c-1.4-4.7,25-19.6,23-24s-30.601,5.7-33.2,1.7c-2.6-4.1,18.4-25.9,15.3-29.5c-3.2-3.6-27.7,14.1-31.399,10.9
			c-3.601-3.2,10.399-30,6.399-32.6s-22.6,21.3-27,19.3c-4.399-2,1.601-31.7-3.1-33.1c-4.601-1.3-15.601,26.9-20.5,26.2
			c-4.7-0.7-7.4-30.9-12.3-30.9c-4.9,0-7.601,30.2-12.301,30.9c-4.8,0.7-15.899-27.5-20.5-26.2c-4.699,1.4,1.301,31.1-3.1,33.1
			s-23-21.9-27-19.3c-4.1,2.6,10,29.5,6.4,32.6c-3.601,3.2-28.2-14.6-31.4-10.9c-3.2,3.6,17.9,25.4,15.3,29.5
			c-2.6,4-31.2-6.1-33.2-1.7s24.301,19.3,23,24c-1.3,4.6-31.6,3-32.3,7.8c-0.7,4.7,28.8,11.6,28.8,16.5s-29.5,11.8-28.8,16.5
			c0.601,4.3,24.8,3.5,30.9,6.5c0.7,0.4,1.2,0.8,1.399,1.3c0.5,1.6-2.199,4.3-5.899,7.4c-7.3,6.1-18.4,13.7-17.101,16.6
			c0.9,1.9,6.601,1.1,13.101-0.1c4.399-0.8,9.1-1.8,12.899-2.3c3.7-0.5,6.5-0.5,7.301,0.7c1.3,2-3.301,8.5-7.801,14.9
			c-4.6,6.4-9.1,12.8-7.5,14.6c1,1.1,3.801,0.3,7.5-1.4c3.801-1.7,8.301-4.1,12.5-6.2l0.2,68.1l-71.3-55.3
			c-11.8-9.3-29.6-9.3-43.6-9.3c-30.7,0-65,0-106.301,0c-5.899,0-11.399-3.1-14.5-8.2l-27-44.3c5,0.9,10.101,1,15,0.6
			c4.601-0.4,9.101-1.2,13.301-2.2c3.3-0.8,6.5-1.8,9.399-2.8c9.601,11.1,21.401,24.8,35.601,32c4.3,2.2,8.899,3.8,13.699,4.5
			c9.5,1.4,19.2-0.7,28.5-4.5c10.601-4.3,20.601-10.6,29.301-16.2c12.8,9.4,32.3,19.6,53,13.9c-2.4-11.2-4.101-22.5-5.301-33.9
			c-3.199-30.4,4-59.8-11.699-87.8c-14.2-25.3-39.2-45.6-67.4-49.8c-28.2-4.2-58,8.1-78.901,28.2c-20.8,20-24.199,46.4-33.3,72
			c-1,2.9-2.1,5.8-3.399,8.7c-0.801,1.9-1.601,3.8-2.5,5.7c-2,4.6-4.101,9.1-6.301,13.6l-51.8-84.9c5.2,2.6,9.7,4.4,10.9,3
			c3.2-3.6-17.9-25.4-15.3-29.5c0.3-0.5,1.1-0.8,2.3-0.9c3.399-0.3,9.8,1,16,2.2c7.2,1.4,14,2.5,15,0.4c2-4.4-24.3-19.3-23-24
			c1.3-4.6,31.6-3,32.3-7.8c0.7-4.7-28.8-11.6-28.8-16.5s29.5-11.8,28.8-16.5c-0.7-4.8-31-3.2-32.3-7.8c-1.4-4.7,25-19.6,23-24
			s-30.601,5.7-33.2,1.7c-2.6-4.1,18.4-25.9,15.3-29.5c-3.2-3.6-27.7,14.1-31.399,10.9c-3.601-3.2,10.399-30,6.399-32.6
			s-22.6,21.3-27,19.3c-4.399-2,1.601-31.7-3.1-33.1c-4.601-1.3-15.601,26.9-20.5,26.2c-5-0.8-7.7-31-12.601-31
			c-4.899,0-7.6,30.2-12.3,30.9c-4.8,0.7-15.9-27.5-20.5-26.2c-4.7,1.4,1.3,31.1-3.1,33.1c-4.4,2-23-21.9-27-19.3
			c-4.1,2.6,10,29.5,6.4,32.6c-3.6,3.2-28.2-14.6-31.4-10.9c-3.2,3.6,17.9,25.4,15.3,29.5c-2.6,4-31.2-6.1-33.2-1.7s24.3,19.3,23,24
			c-1.3,4.6-31.6,3-32.3,7.8c-0.7,4.7,28.8,11.6,28.8,16.5C213.101,121.2,183.601,128.1,184.301,132.8z"/>
	</g>
</g>
<g>
</g>
<g>
</g>
<g>
</g>
<g>
</g>
<g>
</g>
<g>
</g>
<g>
</g>
<g>
</g>
<g>
</g>
<g>
</g>
<g>
</g>
<g>
</g>
<g>
</g>
<g>
</g>
<g>
</g>
</svg>
