<?xml version="1.0" encoding="iso-8859-1"?>
<!-- Generator: Adobe Illustrator 16.0.0, SVG Export Plug-In . SVG Version: 6.00 Build 0)  -->
<!DOCTYPE svg PUBLIC "-//W3C//DTD SVG 1.1//EN" "http://www.w3.org/Graphics/SVG/1.1/DTD/svg11.dtd">
<svg version="1.1" id="Capa_1" xmlns="http://www.w3.org/2000/svg" xmlns:xlink="http://www.w3.org/1999/xlink" x="0px" y="0px"
	 width="116.44px" height="116.44px" viewBox="0 0 116.44 116.44" style="enable-background:new 0 0 116.44 116.44;"
	 xml:space="preserve">
<g>
	<g>
		<path d="M14.328,85.872c-2.153-2.347-5.419-2.83-7.297-1.071c-1.875,1.756-3.401,3.177-3.401,3.177s-8.787,8.191,3.987,22.585
			c5.071,5.721,11.126,6.284,15.423,5.693c3.154-0.431,7.039-2.885,8.9-4.519c1.861-1.626,1.623-4.854-0.526-7.201L14.328,85.872z"
			/>
		<path d="M113.417,64.095c-2.315-2.696-5.888-2.707-8.226-2.349c-0.425,0.065-0.854-0.092-1.141-0.413
			c-0.285-0.324-0.386-0.771-0.27-1.185c0.812-2.877,0.15-6.082-2.048-8.413c-1.978-2.093-4.729-2.982-7.382-2.677
			c-0.541,0.063-1.079-0.134-1.453-0.528s-0.538-0.943-0.449-1.48c0.454-2.63-0.276-5.427-2.256-7.52
			c-2.177-2.293-5.274-3.15-8.15-2.564c-0.42,0.085-0.849-0.049-1.139-0.36c-0.292-0.308-0.405-0.745-0.296-1.157
			c0.748-2.842,0.068-5.989-2.102-8.282c-1.77-1.875-4.165-2.786-6.553-2.735c-0.685,0.014-1.342-0.261-1.813-0.757
			c-0.471-0.498-0.712-1.17-0.657-1.853c0.185-2.381-0.591-4.823-2.363-6.701c-2.042-2.164-4.913-3.046-7.646-2.652
			c-0.523,0.076-1.049-0.107-1.411-0.49c-0.362-0.383-0.517-0.92-0.412-1.436c0.55-2.708-0.17-5.623-2.214-7.785
			c-3.354-3.539-8.941-3.693-12.487-0.346c-1.362,1.287-2.212,2.907-2.567,4.61c-0.196,0.16-14.288,55.669-14.288,55.669
			c-0.769,3.091-3.272,7.363-5.599,9.539l-0.218,0.203c-2.327,2.177-2.466,5.845-0.314,8.2l17.249,18.831
			c2.152,2.345,5.837,2.543,8.229,0.439l1.932-1.694c2.392-2.099,6.825-4.489,9.892-5.336l50.708-13.969
			c2.049-0.609,3.637-0.956,5.085-2.329C116.604,73.23,116.585,67.793,113.417,64.095z M39.688,69.392
			c-0.488,1.446-1.836,2.356-3.279,2.356c-0.367,0-0.738-0.06-1.107-0.183c-1.812-0.611-2.784-2.573-2.175-4.387l10.575-31.339
			c0.611-1.81,2.569-2.786,4.387-2.174c1.81,0.611,2.784,2.577,2.171,4.387L39.688,69.392z M47.078,67.145l23.455-22.687
			c1.374-1.33,3.565-1.294,4.897,0.081c1.326,1.374,1.294,3.566-0.082,4.894L51.892,72.12c-0.673,0.646-1.542,0.972-2.405,0.972
			c-0.904,0-1.809-0.354-2.489-1.054C45.667,70.665,45.705,68.471,47.078,67.145z M82.705,75.293L51.317,85.731
			c-0.361,0.118-0.731,0.173-1.09,0.173c-1.453,0-2.803-0.917-3.285-2.367c-0.602-1.813,0.378-3.775,2.193-4.38l31.386-10.434
			c1.82-0.603,3.772,0.381,4.377,2.189C85.5,72.731,84.518,74.693,82.705,75.293z"/>
	</g>
</g>
<g>
</g>
<g>
</g>
<g>
</g>
<g>
</g>
<g>
</g>
<g>
</g>
<g>
</g>
<g>
</g>
<g>
</g>
<g>
</g>
<g>
</g>
<g>
</g>
<g>
</g>
<g>
</g>
<g>
</g>
</svg>
