<?xml version="1.0" encoding="iso-8859-1"?>
<!-- Generator: Adobe Illustrator 18.1.1, SVG Export Plug-In . SVG Version: 6.00 Build 0)  -->
<svg version="1.1" id="Capa_1" xmlns="http://www.w3.org/2000/svg" xmlns:xlink="http://www.w3.org/1999/xlink" x="0px" y="0px"
	 viewBox="0 0 393.436 393.436" style="enable-background:new 0 0 393.436 393.436;" xml:space="preserve">
<g>
	<g id="Layer_1_4_">
		<g>
			<path d="M308.913,202.075l-83.691-70.032c-28.801-23.419-67.539-45.488-96.266-12.841
				c-26.729,30.374-54.301,66.328-54.688,66.745c-12.314,13.262-12.877,31.017-1.346,43.382L3.958,320.691
				c-5.744,7.594-5.254,18.452,1.586,25.493c7.553,7.771,19.975,7.952,27.746,0.401l78.473-76.237l25.094,26.495l-44.465,64.081
				c-5.486,7.89-4.48,18.819,2.764,25.549c7.936,7.373,20.344,6.917,27.717-1.019l69.195-74.472
				c8.266-8.875,8.898-22.716,0.992-32.348l-1.771-2.156l-42.275-51.487l44.799-54.64l90.275,63.968
				c8.576,6.041,20.559,4.632,27.402-3.562C318.698,222.127,317.544,209.285,308.913,202.075z"/>
			<circle cx="224.715" cy="55.342" r="53.623"/>
			<path d="M362.817,123.88c-4.612-1.542-9.396-2.324-14.219-2.324c-19.306,0-36.391,12.308-42.514,30.626
				c-3.799,11.358-2.947,23.515,2.399,34.231c5.346,10.715,14.545,18.708,25.903,22.504c4.612,1.542,9.397,2.324,14.222,2.324
				c0.001,0,0,0,0.001,0c19.304,0,36.388-12.309,42.51-30.627C398.957,157.171,386.261,131.72,362.817,123.88z M365.744,195.121
				c-2.896,1.73-6.06,3.03-9.399,3.823c1.644-7.091,2.213-17.272-2.556-28.886c1.484-1.613,4.251-4.071,8.691-6.144
				C365.548,169.179,369.505,179.655,365.744,195.121z M345.445,173.426c1.388,3.371,2.229,6.583,2.677,9.577
				c-6.465-0.53-20.827-4.605-30.599-28.887c1.505-3.815,3.655-7.242,6.31-10.173C325.932,154.421,331.414,170.285,345.445,173.426z
				 M346.735,164.471c-3.335-0.998-5.951-3.373-7.998-6.378c2.531-3.365,12.663-14.542,34.969-13.76
				c1.83,2.089,3.39,4.391,4.647,6.848C360.068,152.069,350.529,160.188,346.735,164.471z M359.204,134.683
				c1.086,0.363,2.141,0.777,3.164,1.239c-14.296,2.036-23.138,8.592-27.806,13.319c-1.477-4.475-2.258-8.912-2.651-11.814
				c4.961-2.86,10.674-4.479,16.687-4.479C352.191,132.947,355.76,133.531,359.204,134.683z M318.676,181.328
				c-1.829-3.665-2.943-7.557-3.351-11.514c11.478,18.593,25.874,21.855,33.058,22.211c-0.284,3.078-0.911,5.703-1.571,7.752
				c-2.985-0.162-5.943-0.704-8.814-1.664C329.526,195.283,322.663,189.322,318.676,181.328z M380.317,177.005
				c-0.989,2.959-2.382,5.692-4.071,8.183c0.441-10.702-2.316-18.785-5.073-24.092c2.985-0.607,6.396-0.975,10.256-0.99
				C382.487,165.567,382.203,171.363,380.317,177.005z"/>
		</g>
	</g>
</g>
<g>
</g>
<g>
</g>
<g>
</g>
<g>
</g>
<g>
</g>
<g>
</g>
<g>
</g>
<g>
</g>
<g>
</g>
<g>
</g>
<g>
</g>
<g>
</g>
<g>
</g>
<g>
</g>
<g>
</g>
</svg>
