<?xml version="1.0" encoding="iso-8859-1"?>
<!-- Generator: Adobe Illustrator 18.1.1, SVG Export Plug-In . SVG Version: 6.00 Build 0)  -->
<svg version="1.1" id="Capa_1" xmlns="http://www.w3.org/2000/svg" xmlns:xlink="http://www.w3.org/1999/xlink" x="0px" y="0px"
	 viewBox="0 0 56.417 56.417" style="enable-background:new 0 0 56.417 56.417;" xml:space="preserve">
<g>
	<g>
		<circle style="fill:#010002;" cx="49.94" cy="15.709" r="4.783"/>
		<path style="fill:#010002;" d="M47.393,21.838c-0.8-0.07-1.572-0.209-2.243-0.548c-2.258-1.145-2.371-4.523-3.024-6.627
			c-0.799-2.596-4.88-1.49-4.069,1.122c0.925,3.023,1.307,5.73,3.594,8.113c1.281,1.339,2.821,1.714,4.432,1.887
			c0,3.625,0,7.256,0,10.882c0,1.224,0.431,2.168,1.091,2.846c-0.254,0.489-0.508,0.983-0.729,1.484
			c-0.756,1.706-1.002,3.499-0.932,5.362c0.133,3.215,2.42,5.794,3.708,8.596c1.515,3.297,6.37,0.438,4.862-2.845
			c-1.242-2.701-3.386-4.844-2.802-8.008c0.271-1.47,0.912-2.758,1.527-4.07c1.008-0.664,1.729-1.786,1.729-3.365
			c0-3.93,0-7.854,0-11.774C54.531,20.802,49.77,19.784,47.393,21.838z"/>
		<circle style="fill:#010002;" cx="29.771" cy="4.442" r="4.442"/>
		<path style="fill:#010002;" d="M1.695,11.012h6.613l2.022,15.294h11.256l2.022-15.294h0.485V9.183H1.695V11.012z M10.038,16.142
			l2.06,2.06L10.52,19.78L10.038,16.142z M11.24,25.235l-0.261-1.976l1.118,1.119L11.24,25.235z M10.744,21.48l-0.045-0.336
			l2.171-2.17l2.315,2.316l-2.315,2.316L10.744,21.48z M13.642,18.202l2.316-2.316l2.316,2.316l-2.316,2.316L13.642,18.202z
			 M17.297,25.355h-2.678l-0.978-0.977l2.316-2.316l2.316,2.316L17.297,25.355z M20.675,25.235l-0.856-0.856l1.117-1.118
			L20.675,25.235z M21.171,21.481l-2.125,2.125l-2.315-2.316l2.315-2.317l2.171,2.17L21.171,21.481z M21.396,19.78l-1.579-1.578
			l2.061-2.06L21.396,19.78z M20.794,11.049h1.758l-0.434,3.276l-2.301-2.3L20.794,11.049z M21.361,15.113l-2.315,2.316
			l-2.315-2.316l2.315-2.316L21.361,15.113z M14.618,11.049h2.679l0.978,0.976l-2.316,2.316l-2.315-2.316L14.618,11.049z
			 M15.186,15.113l-2.315,2.316l-2.316-2.316l2.316-2.316L15.186,15.113z M11.121,11.049l0.978,0.976l-2.301,2.3l-0.433-3.276
			C9.365,11.049,11.121,11.049,11.121,11.049z"/>
	</g>
</g>
<g>
</g>
<g>
</g>
<g>
</g>
<g>
</g>
<g>
</g>
<g>
</g>
<g>
</g>
<g>
</g>
<g>
</g>
<g>
</g>
<g>
</g>
<g>
</g>
<g>
</g>
<g>
</g>
<g>
</g>
</svg>
