<?xml version="1.0" encoding="iso-8859-1"?>
<!-- Generator: Adobe Illustrator 18.1.1, SVG Export Plug-In . SVG Version: 6.00 Build 0)  -->
<svg version="1.1" id="Capa_1" xmlns="http://www.w3.org/2000/svg" xmlns:xlink="http://www.w3.org/1999/xlink" x="0px" y="0px"
	 viewBox="0 0 290.068 290.068" style="enable-background:new 0 0 290.068 290.068;" xml:space="preserve">
<path color-rendering="auto" image-rendering="auto" shape-rendering="auto" color-interpolation="sRGB" d="M260.034,0
	c-2.761,0-5,2.239-5,5v85h-50v-5c0-2.761-2.239-5-5-5h-190c-2.761,0-5,2.239-5,5v20c0,2.761,2.239,5,5,5h15.553l19.48,165.584
	c0.697,6.724,10.814,5.534,9.932-1.168l-1.869-15.891l0.203,0.232l21.996-19.312l26.025,28.9c1.848,2.052,5.01,2.218,7.062,0.37
	c0.13-0.117,0.253-0.24,0.37-0.37l25.975-28.877l21.975,19.291l0.201-0.229l-1.869,15.887c-0.882,6.702,9.235,7.892,9.932,1.168
	l19.48-165.584h14.736c1.583,0.261,3.194-0.252,4.334-1.381c0.042-0.039,0.083-0.079,0.123-0.119c1.11-1.135,1.615-2.73,1.361-4.297
	v-4.203h50v184.18c-0.261,1.575,0.246,3.181,1.365,4.32c1.14,1.207,2.805,1.769,4.443,1.5h19.191c2.761,0,5-2.239,5-5v-280
	c0-2.761-2.239-5-5-5h-20L260.034,0z M265.034,10h10v270h-10V10L265.034,10z M15.034,90h180v10h-180V90z M46.851,110h42.068
	l4.338,2.035l-25.18,11.809C68.077,123.844,46.851,110,46.851,110z M121.149,110h42.064l-21.225,13.842l-25.178-11.807L121.149,110z
	 M36.247,115.021l21.184,13.814l-18.535,8.693L36.247,115.021z M173.819,115.021l-2.648,22.506l-18.533-8.691L173.819,115.021z
	 M105.034,117.557l27.104,12.711l-27.105,17.676l-27.104-17.678l27.105-12.711V117.557z M67.282,135.262l28.6,18.65l-24.908,16.244
	L43.78,146.283L67.282,135.262z M142.784,135.262l23.502,11.021l-27.193,23.875l-24.908-16.244L142.784,135.262L142.784,135.262z
	 M41.225,157.35l21.051,18.48l-17.531,11.432L41.225,157.35L41.225,157.35z M168.841,157.35l-3.52,29.912L147.79,175.83
	L168.841,157.35z M105.034,159.883l26.258,17.125l-26.258,23.053l-26.258-23.053L105.034,159.883z M70.079,182.68l27.375,24.033
	l-21.303,18.703l-26.492-29.42L70.079,182.68z M139.989,182.68l20.422,13.318l-26.477,29.436l-21.322-18.719L139.989,182.68
	L139.989,182.68z M47.212,208.223l21.426,23.791l-16.883,14.822C51.755,246.836,47.212,208.223,47.212,208.223z M162.853,208.236
	l-4.541,38.598l-16.861-14.803L162.853,208.236z M105.034,213.367l22.213,19.502l-22.18,24.658l-22.223-24.68L105.034,213.367z"/>
<g>
</g>
<g>
</g>
<g>
</g>
<g>
</g>
<g>
</g>
<g>
</g>
<g>
</g>
<g>
</g>
<g>
</g>
<g>
</g>
<g>
</g>
<g>
</g>
<g>
</g>
<g>
</g>
<g>
</g>
</svg>
