<?xml version="1.0" encoding="iso-8859-1"?>
<!-- Generator: Adobe Illustrator 16.0.0, SVG Export Plug-In . SVG Version: 6.00 Build 0)  -->
<!DOCTYPE svg PUBLIC "-//W3C//DTD SVG 1.1//EN" "http://www.w3.org/Graphics/SVG/1.1/DTD/svg11.dtd">
<svg version="1.1" id="Capa_1" xmlns="http://www.w3.org/2000/svg" xmlns:xlink="http://www.w3.org/1999/xlink" x="0px" y="0px"
	 width="308.783px" height="308.783px" viewBox="0 0 308.783 308.783" style="enable-background:new 0 0 308.783 308.783;"
	 xml:space="preserve">
<g>
	<g id="Artwork_11_">
		<path d="M301.339,246.238l-55.734-19.031c0,0-2.328-1.104-3.218-1.993c-6.055-6.056-27.149-27.15-54.408-54.408
			c-1.084-0.747-0.355-1.812,0.008-2.174c38.028-38.031,75.127-75.129,100.533-100.534c24.106-24.105,14.451-46.28-8.331-23.498
			c-5.969,5.968-18.294,6.154-33.55,2.927c-3.376-0.713-6.721-1.489-10.261-2.31c-35.464-8.223-75.392-17.466-135.233,36.865
			c-0.329,0.297-1.175,1.203-2.472-0.094C87.065,70.381,78.116,60.945,69.83,52.658c-1.823-1.824-0.382-3.074-0.382-3.074
			l4.359-4.36c5.488-5.487,4.211-12.632-2.839-15.878L10.026,1.285C2.976-1.959-0.137,1.152,3.108,8.201L31.17,69.144
			c3.246,7.051,10.39,8.326,15.878,2.839l3.496-3.496c0,0,1.923-2.495,3.938-0.48c8.266,8.266,16.852,16.854,28.438,28.438
			c1.458,1.291,1.287,2.4,1.021,2.689c-56.064,61.131-45.669,108.154-37.234,146.273l0.395,1.788
			c3.688,16.705,2.177,29.867-5.82,37.864c-17.326,17.326-11.139,41.416,26.444,3.833c25.941-25.941,64.074-64.072,102.938-102.938
			c0.294-0.295,0.893-0.711,2.043,0.277c27.724,27.723,49.027,49.028,54.588,54.588c0.723,0.721,1.695,2.849,1.695,2.849
			l19.07,55.85c2.507,7.342,7.058,7.514,10.115,0.381l7.501-17.518c3.056-7.136,11.392-15.474,18.524-18.527l17.521-7.502
			C308.855,253.297,308.682,248.744,301.339,246.238z M230.862,69.007c3.498,0.811,7.115,1.648,10.722,2.41
			c4.276,0.906,8.383,1.549,12.318,1.938c0,0-60.561,60.562-80.747,80.749c-1.068,1.068-2.119-0.241-2.119-0.241
			c-17.927-17.927-34.883-34.884-52.583-52.582c-0.855-0.977-0.41-1.571-0.107-1.844C168.186,54.485,198.693,61.549,230.862,69.007z
			 M72.92,254.34c-0.368-3.896-1.004-8.025-1.972-12.411l-0.398-1.798c-7.882-35.623-16.015-72.392,30.67-123.707
			c0.266-0.292,1.193-0.628,1.999,0.321c17.715,17.715,35.016,35.015,52.964,52.963c0,0,0.527,0.843-0.274,1.644
			C134.924,192.342,72.92,254.34,72.92,254.34z"/>
	</g>
</g>
<g>
</g>
<g>
</g>
<g>
</g>
<g>
</g>
<g>
</g>
<g>
</g>
<g>
</g>
<g>
</g>
<g>
</g>
<g>
</g>
<g>
</g>
<g>
</g>
<g>
</g>
<g>
</g>
<g>
</g>
</svg>
