<?xml version="1.0" encoding="iso-8859-1"?>
<!-- Generator: Adobe Illustrator 16.0.0, SVG Export Plug-In . SVG Version: 6.00 Build 0)  -->
<!DOCTYPE svg PUBLIC "-//W3C//DTD SVG 1.1//EN" "http://www.w3.org/Graphics/SVG/1.1/DTD/svg11.dtd">
<svg version="1.1" id="Capa_1" xmlns="http://www.w3.org/2000/svg" xmlns:xlink="http://www.w3.org/1999/xlink" x="0px" y="0px"
	 width="308.755px" height="308.755px" viewBox="0 0 308.755 308.755" style="enable-background:new 0 0 308.755 308.755;"
	 xml:space="preserve">
<g>
	<g>
		<path d="M58.825,187.473c42.898,0,95.547,0,95.547,0s1.224,0,3.428,0l0.15-2.371l-21.802-37.834
			c-10.28-1.894-19.098-5.319-25.301-9.76c-2.336-1.67-6.31-3.333-9.184-3.333H15.926c-14.36,0-20.766,10.524-11.791,21.724
			C15.959,170.645,34.725,187.473,58.825,187.473z"/>
		<path d="M191.619,180.892c2.564,1.514,5.337,3.971,7.673,6.581c15.914,0,34.002,0,50.628,0c24.115,0,42.878-16.828,54.694-31.575
			c8.988-11.205,2.569-21.724-11.796-21.724h-85.731c-2.879,0-6.846,1.663-9.187,3.333c-7.642,5.464-19.235,9.384-32.677,10.793
			l14.854,25.776L191.619,180.892z"/>
		<path d="M100.647,67.549l66.679,115.699l-0.96,15c-0.218,3.331,0.635,8.531,1.96,11.599c4.505,10.42,14.641,32.646,22.866,41.964
			c2.215,2.498,7.348,3.859,10.618,3.204c5.353-1.071,13.106-3.925,18.104-11.542c1.828-2.793,1.33-7.714-0.386-10.582
			l-22.125-37.024c-1.717-2.868-5.434-6.565-8.308-8.262l-13.314-7.851L108.495,63.009c0.274-0.749,0.442-1.543,0.442-2.381
			c0-3.895-3.151-7.051-7.045-7.051c-3.895,0-7.046,3.156-7.046,7.051C94.841,64.096,97.352,66.967,100.647,67.549z"/>
	</g>
</g>
<g>
</g>
<g>
</g>
<g>
</g>
<g>
</g>
<g>
</g>
<g>
</g>
<g>
</g>
<g>
</g>
<g>
</g>
<g>
</g>
<g>
</g>
<g>
</g>
<g>
</g>
<g>
</g>
<g>
</g>
</svg>
