<?xml version="1.0" standalone="no"?>
<!DOCTYPE svg PUBLIC "-//W3C//DTD SVG 20010904//EN"
 "http://www.w3.org/TR/2001/REC-SVG-20010904/DTD/svg10.dtd">
<svg version="1.0" xmlns="http://www.w3.org/2000/svg"
 width="477.000000pt" height="477.000000pt" viewBox="0 0 477.000000 477.000000"
 preserveAspectRatio="xMidYMid meet">
<metadata>
Created by potrace 1.11, written by Peter Selinger 2001-2013
</metadata>
<g transform="translate(0.000000,477.000000) scale(0.100000,-0.100000)"
fill="#000000" stroke="none">
<path d="M1804 4756 c-17 -8 -42 -29 -55 -47 -24 -33 -24 -38 -27 -289 -2
-228 -1 -259 15 -289 31 -59 61 -74 166 -81 145 -9 182 -48 182 -190 l0 -75
-89 -18 c-105 -22 -266 -73 -365 -116 -38 -17 -74 -31 -79 -31 -6 0 -56 65
-112 145 -117 167 -146 195 -200 195 -40 0 -59 -11 -280 -168 -132 -93 -150
-114 -150 -171 0 -39 11 -58 116 -207 l115 -164 -71 -78 c-513 -561 -634
-1399 -300 -2091 288 -595 830 -984 1495 -1072 146 -19 453 -6 599 25 366 79
677 243 940 496 306 295 490 644 568 1080 8 48 13 154 13 295 -1 186 -4 239
-23 340 -64 339 -225 665 -462 933 l-90 102 109 155 c60 86 112 169 116 184
13 62 -12 91 -192 219 -92 65 -179 125 -192 132 -28 14 -94 8 -118 -11 -8 -8
-65 -83 -125 -169 -61 -85 -112 -156 -113 -158 -1 -2 -28 8 -59 22 -84 37
-259 92 -358 112 l-88 19 0 81 c0 68 4 87 23 115 33 49 79 69 162 69 81 0 123
20 155 72 19 31 20 51 20 289 0 250 -1 257 -23 290 -47 71 -29 69 -642 69
-439 -1 -556 -4 -581 -14z m869 -1435 c288 -61 524 -188 732 -396 282 -282
427 -629 427 -1025 0 -485 -233 -923 -638 -1198 -556 -378 -1309 -317 -1796
146 -177 169 -299 355 -376 573 -61 173 -77 274 -76 484 0 206 14 299 70 462
41 122 139 312 179 348 6 6 34 39 62 75 62 79 184 198 273 266 36 27 73 57 82
66 26 26 201 111 298 146 92 32 198 58 300 72 104 14 351 4 463 -19z"/>
<path d="M2378 3095 c-2 -2 -49 -8 -104 -15 -148 -16 -273 -52 -409 -120 -143
-70 -222 -128 -333 -244 -290 -302 -401 -726 -297 -1126 31 -115 125 -309 194
-400 118 -156 305 -304 480 -381 251 -111 544 -130 810 -53 327 95 604 333
750 645 83 176 117 358 108 567 -12 286 -122 539 -323 751 -222 233 -478 353
-800 375 -40 2 -74 3 -76 1z"/>
</g>
</svg>
