<?xml version="1.0" encoding="iso-8859-1"?>
<!-- Generator: Adobe Illustrator 16.0.0, SVG Export Plug-In . SVG Version: 6.00 Build 0)  -->
<!DOCTYPE svg PUBLIC "-//W3C//DTD SVG 1.1//EN" "http://www.w3.org/Graphics/SVG/1.1/DTD/svg11.dtd">
<svg version="1.1" id="Capa_1" xmlns="http://www.w3.org/2000/svg" xmlns:xlink="http://www.w3.org/1999/xlink" x="0px" y="0px"
	 width="471.006px" height="471.006px" viewBox="0 0 471.006 471.006" style="enable-background:new 0 0 471.006 471.006;"
	 xml:space="preserve">
<g>
	<g>
		<path d="M92.836,83.896c29.52-23.447,18.475-73.21-18.379-82.438C41.82-6.747,11.555,20.889,16.614,54.262
			C21.998,89.777,64.57,106.32,92.836,83.896z"/>
		<path d="M123.351,111.551c-5.776-11.408-20.015-16.667-31.824-11.743l-45.068,18.819c-8.128,3.404-13.005,10.815-13.569,18.886
			l-0.163-0.306c0,0-18.886,54.057,0,89.763c13.129,24.824,42.056,37.352,58.484,42.688l6.541,14.009
			c0.21,0.439,0.498,0.804,0.717,1.224l0.44,0.938l0.086-0.038c4.456,7.755,12.049,12.785,20.521,14.124
			c-5.307,29.835-3.203,73.401,38.355,109.012c1.09,0.938,2.429,1.396,3.768,1.396c1.625,0,3.251-0.679,4.389-2.018
			c2.084-2.429,1.807-6.082-0.631-8.166c-39.024-33.46-39.818-73.957-34.348-100.751c0.641-0.162,1.281-0.229,1.922-0.431
			l113.956-37.149l128.902,81.645c3.262,2.056,6.771,3.327,10.347,3.978l29.567,82.783c4.312,12.048,14.746,28.4,23.313,36.519
			c8.578,8.118,15.539,4.332,15.559-8.453l0.334-395.448c0-14.248-11.446-25.685-25.675-25.685h-264.02
			c-3.137-4.504-8.339-7.459-14.239-7.459h-14.478c-5.68,0-11.006,2.783-14.258,7.449c-3.242,4.657-4.016,10.614-2.037,15.95
			l29.95,80.975l-14.631,1.674L123.351,111.551z M276.856,99.951c12.432,3.031,23.858,15.683,25.522,28.257
			c1.664,12.565,12.947,25.761,25.197,29.462l58.876,17.777c12.25,3.701,24.987,15.319,28.439,25.953
			c3.442,10.633,2.065,28.735-3.127,40.43l-19.307,43.596l-126.053-79.828c-7.325-4.619-16.257-5.756-24.48-3.069l-50.795,16.562
			c20.253-20.684,56.581-65.914,58.713-125.718L276.856,99.951z M176.164,166.057c5.307-0.612,10.031-3.614,12.823-8.166
			c2.792-4.552,3.347-10.127,1.492-15.128l-25.962-70.179l73.803,17.978c-1.205,64.222-45.202,111.173-61.621,126.483
			l-24.394-48.262L176.164,166.057z"/>
	</g>
</g>
<g>
</g>
<g>
</g>
<g>
</g>
<g>
</g>
<g>
</g>
<g>
</g>
<g>
</g>
<g>
</g>
<g>
</g>
<g>
</g>
<g>
</g>
<g>
</g>
<g>
</g>
<g>
</g>
<g>
</g>
</svg>
