<?xml version="1.0" standalone="no"?>
<!DOCTYPE svg PUBLIC "-//W3C//DTD SVG 20010904//EN"
 "http://www.w3.org/TR/2001/REC-SVG-20010904/DTD/svg10.dtd">
<svg version="1.0" xmlns="http://www.w3.org/2000/svg"
 width="512.000000pt" height="512.000000pt" viewBox="0 0 512.000000 512.000000"
 preserveAspectRatio="xMidYMid meet">
<metadata>
Created by potrace 1.12, written by Peter Selinger 2001-2015
</metadata>
<g transform="translate(0.000000,512.000000) scale(0.100000,-0.100000)"
fill="#000000" stroke="none">
<path d="M1200 4060 c-12 -12 -20 -33 -20 -53 0 -24 154 -299 651 -1162 358
-622 655 -1134 660 -1139 10 -11 74 16 111 47 l26 22 -200 345 c-110 190 -407
703 -660 1140 -253 437 -468 800 -477 807 -24 19 -69 15 -91 -7z"/>
<path d="M3305 3288 c-52 -18 -96 -59 -121 -112 l-24 -51 0 -401 0 -402 24 -6
c57 -14 55 -28 58 392 3 385 3 387 26 428 13 22 43 53 65 68 l42 27 191 -3
191 -3 37 -29 c75 -56 76 -63 76 -492 l0 -382 24 -6 c58 -14 56 -29 56 393 0
431 -3 460 -62 520 -64 66 -87 71 -333 70 -126 0 -233 -5 -250 -11z"/>
<path d="M3453 2252 c-92 -33 -163 -106 -194 -200 -28 -84 12 -219 84 -290
105 -103 269 -117 391 -33 147 102 170 326 45 450 -78 78 -222 110 -326 73z
m162 -13 c89 -25 91 -21 -97 -185 -242 -210 -215 -193 -233 -150 -60 142 91
342 260 345 17 1 48 -4 70 -10z m215 -194 c38 -135 -35 -281 -164 -330 -76
-29 -236 -10 -236 28 0 7 81 93 180 191 197 196 196 196 220 111z"/>
<path d="M2909 1970 c-46 -24 -62 -45 -62 -78 1 -33 183 -358 220 -390 30 -27
58 -24 115 14 64 41 62 51 -57 261 -59 103 -114 194 -123 201 -22 17 -51 14
-93 -8z"/>
<path d="M2733 1809 l-73 -50 16 -32 c57 -110 188 -327 197 -327 20 0 157 80
157 91 0 14 -210 369 -219 369 -3 0 -39 -23 -78 -51z"/>
<path d="M2572 1714 c-49 -28 -60 -38 -54 -52 12 -31 194 -342 203 -348 7 -4
81 30 118 55 12 7 -6 44 -89 190 -56 100 -105 183 -109 186 -4 2 -35 -12 -69
-31z"/>
<path d="M2408 1625 c-36 -19 -69 -38 -72 -43 -5 -8 183 -355 204 -376 14 -14
161 85 154 105 -11 38 -197 349 -207 349 -7 -1 -42 -16 -79 -35z"/>
<path d="M2230 1573 c-8 -3 -32 -17 -52 -30 -60 -37 -54 -59 65 -268 66 -116
111 -185 128 -194 34 -19 69 -9 114 33 29 28 35 40 30 58 -9 29 -193 369 -209
385 -14 15 -56 24 -76 16z"/>
</g>
</svg>
