<?xml version="1.0" encoding="iso-8859-1"?>
<!-- Generator: Adobe Illustrator 16.0.0, SVG Export Plug-In . SVG Version: 6.00 Build 0)  -->
<!DOCTYPE svg PUBLIC "-//W3C//DTD SVG 1.1//EN" "http://www.w3.org/Graphics/SVG/1.1/DTD/svg11.dtd">
<svg version="1.1" id="Capa_1" xmlns="http://www.w3.org/2000/svg" xmlns:xlink="http://www.w3.org/1999/xlink" x="0px" y="0px"
	 width="386.089px" height="386.089px" viewBox="0 0 386.089 386.089" style="enable-background:new 0 0 386.089 386.089;"
	 xml:space="preserve">
<g>
	<g>
		<path d="M130.608,0l59.749,19.433v88.337H169.44c-1.483,0-2.687,1.205-2.687,2.688v45.134l-25.914-10.058L130.608,0z"/>
		<polygon points="213.958,157.666 210.495,159.015 195.726,164.745 195.726,113.14 213.958,113.14 		"/>
		<polygon points="190.352,164.745 184.068,162.312 172.128,157.666 172.128,113.14 190.352,113.14 		"/>
		<rect x="172.128" y="279.143" width="41.831" height="15.884"/>
		<rect x="172.128" y="257.893" width="41.831" height="15.885"/>
		<path d="M213.958,252.517h-41.831v-89.071l12.224,4.74l7.714,2.995c0.255,0.097,0.518,0.123,0.78,0.144
			c0.064,0.005,0.129,0.037,0.193,0.037l0,0c0.328,0,0.656-0.058,0.975-0.181l19.945-7.74V252.517L213.958,252.517z"/>
		<path d="M245.244,145.539l-25.909,10.058v-45.132c0-1.485-1.208-2.688-2.688-2.688h-20.92V19.433L255.481,0.01L245.244,145.539z"
			/>
		<polygon points="213.958,300.401 172.128,300.401 172.128,316.129 190.352,327.42 190.352,386.089 195.726,386.089 
			195.726,327.42 213.958,316.129 		"/>
	</g>
</g>
<g>
</g>
<g>
</g>
<g>
</g>
<g>
</g>
<g>
</g>
<g>
</g>
<g>
</g>
<g>
</g>
<g>
</g>
<g>
</g>
<g>
</g>
<g>
</g>
<g>
</g>
<g>
</g>
<g>
</g>
</svg>
