<?xml version="1.0" encoding="iso-8859-1"?>
<!-- Generator: Adobe Illustrator 16.0.0, SVG Export Plug-In . SVG Version: 6.00 Build 0)  -->
<!DOCTYPE svg PUBLIC "-//W3C//DTD SVG 1.1//EN" "http://www.w3.org/Graphics/SVG/1.1/DTD/svg11.dtd">
<svg version="1.1" id="Capa_1" xmlns="http://www.w3.org/2000/svg" xmlns:xlink="http://www.w3.org/1999/xlink" x="0px" y="0px"
	 width="968.3px" height="968.3px" viewBox="0 0 968.3 968.3" style="enable-background:new 0 0 968.3 968.3;" xml:space="preserve"
	>
<g>
	<path d="M406.5,92.3V30c0-16.6-13.4-30-30-30s-30,13.4-30,30v62c9.3-0.6,18.7-1,28.2-1C385.3,91.1,395.9,91.5,406.5,92.3z"/>
	<path d="M146.1,953.7l56.5-94.2c-18.2-8.6-35.6-18.399-52.2-29.6L94.7,922.8C86.2,937,90.8,955.4,105,964
		c4.8,2.9,10.1,4.3,15.4,4.3C130.6,968.3,140.5,963.101,146.1,953.7z"/>
	<path d="M628.9,966.5c5.199,0,10.6-1.399,15.399-4.3c14.2-8.5,18.8-26.9,10.3-41.2L599.7,829.4c-16.601,11.2-34,21.1-52.2,29.7
		l55.6,92.8C608.8,961.3,618.7,966.5,628.9,966.5z"/>
	<path d="M171,795.601c16.5,11.199,34,21.1,52.3,29.5C269.4,846.2,320.6,858,374.7,858c54.399,0,105.899-11.899,152.2-33.3
		c18.3-8.4,35.699-18.4,52.199-29.6c96-65.4,159-175.601,159-300.601c0-190-145.8-346-331.699-362.1
		c-10.5-0.9-21.101-1.4-31.801-1.4c-9.5,0-18.899,0.4-28.199,1.1C158.9,146.5,11.2,303.3,11.2,494.5
		C11.2,619.8,74.5,730.3,171,795.601z M346.5,212.6c9.3-0.9,18.7-1.4,28.2-1.4c10.7,0,21.3,0.6,31.8,1.8
		c63.6,7.1,122.6,35.3,168.5,81.2c53.5,53.5,83,124.7,83,200.3c0,75.7-29.5,146.8-83,200.3c-11.6,11.601-24,22.101-37.2,31.4
		c-16.5,11.6-34,21.4-52.399,29.2c-34.601,14.7-72,22.399-110.7,22.399c-38.3,0-75.5-7.6-109.8-22c-18.4-7.699-36-17.5-52.5-29.1
		c-13.4-9.4-26.1-20.1-37.9-31.9c-53.5-53.5-83-124.699-83-200.3c0-75.7,29.5-146.8,83-200.3C221.1,247.4,281.4,219,346.5,212.6z"/>
	<path d="M246.8,669.2c16.1,11.8,33.9,21.4,52.9,28.5c23.399,8.6,48.6,13.3,75,13.3c26.7,0,52.3-4.8,75.899-13.7
		c19-7.1,36.7-16.8,52.801-28.699C556.7,629.2,591.3,565.8,591.3,494.4c0-108.8-80.2-198.8-184.7-214.2c-10.399-1.5-21-2.3-31.8-2.3
		c-9.6,0-19,0.6-28.2,1.8c-106.399,14-188.5,104.8-188.5,214.8C158.1,566.3,193,629.8,246.8,669.2z M346.5,353.6
		c9.1-1.8,18.5-2.8,28.2-2.8c10.899,0,21.6,1.2,31.8,3.5c64.1,14.5,111.9,71.7,111.9,140.2c0,44.9-20.601,84.9-52.801,111.3
		c-15.5,12.7-33.6,22.101-53.5,27.5c-11.899,3.2-24.5,4.9-37.5,4.9c-12.6,0-24.899-1.6-36.5-4.7c-19.899-5.2-38.1-14.6-53.7-27.2
		c-32.6-26.3-53.5-66.699-53.5-111.899C230.9,424.8,280.6,366.7,346.5,353.6z"/>
	<path d="M372.6,567.3c0.7,0,1.4,0.101,2.101,0.101c1.1,0,2.1,0,3.2-0.101c20-0.899,37.899-9.8,50.5-23.6
		c11.899-13,19.1-30.2,19.1-49.2c0-28.8-16.8-53.8-41.1-65.6c-9.601-4.7-20.4-7.3-31.801-7.3c-10,0-19.5,2-28.199,5.699
		c-6.5,2.7-12.5,6.4-17.9,10.801c-2.7,2.199-5.2,4.6-7.5,7.1c-11.9,13-19.2,30.3-19.2,49.3c0,19.3,7.5,36.9,19.8,49.9
		C334.4,558.101,352.5,566.8,372.6,567.3z"/>
	<path d="M855.5,428.101h0.9l-2.9,182.1l8.2-7.5c5.7-5.2,12.899-7.8,20.1-7.8s14.4,2.6,20.101,7.8l7.3,6.6l-2.5-181.199h1.399
		c8.301,0,15-6.7,15-15V283c0-8.3-6.699-15-15-15h-3.6l-0.9-68.3c0-0.4,0-0.9-0.1-1.3l-13.3-107c-1.5-9.8-15.601-9.8-17.101,0
		l-13.3,107c-0.1,0.4-0.1,0.9-0.1,1.3L858.6,268H855.2c-8.3,0-15,6.7-15,15v130.101C840.5,421.4,847.3,428.101,855.5,428.101z"/>
	<path d="M909.9,650.3l-28-25.399l-29,26.3l-41.9,38c-2.5,2.3-3.9,5.5-3.9,8.9V893c0,7.2,5.9,12,12.101,12c2.8,0,5.6-1,8-3.1
		l46.8-42.4c2.3-2.1,5.2-3.1,8.1-3.1c2.9,0,5.801,1,8.101,3.1l46.8,42.4c2.4,2.2,5.2,3.1,8,3.1c6.2,0,12.1-4.8,12.1-12V698.101
		c0-3.4-1.399-6.601-3.899-8.9L909.9,650.3z"/>
</g>
<g>
</g>
<g>
</g>
<g>
</g>
<g>
</g>
<g>
</g>
<g>
</g>
<g>
</g>
<g>
</g>
<g>
</g>
<g>
</g>
<g>
</g>
<g>
</g>
<g>
</g>
<g>
</g>
<g>
</g>
</svg>
