<?xml version="1.0" encoding="iso-8859-1"?>
<!-- Generator: Adobe Illustrator 18.1.1, SVG Export Plug-In . SVG Version: 6.00 Build 0)  -->
<svg version="1.1" id="Capa_1" xmlns="http://www.w3.org/2000/svg" xmlns:xlink="http://www.w3.org/1999/xlink" x="0px" y="0px"
	 viewBox="0 0 42.862 42.862" style="enable-background:new 0 0 42.862 42.862;" xml:space="preserve">
<g>
	<g>
		<path style="fill:#010002;" d="M39.4,29.132c-3.349-3.348-8.346-3.836-11.521-1.254l-6.188-6.19l21.17-21.175l-1.985,0.705
			L20.619,20.616L0.001,0l0.704,1.988L19.54,21.653l-5.795,5.549c-3.177-2.396-8.034-1.858-11.304,1.415l4.233,4.234l-6.672,6.674
			l2.822,2.824l6.674-6.674l4.235,4.234c3.347-3.346,3.837-8.348,1.253-11.521l5.625-5.621l6.077,6.351
			c-2.391,3.179-1.856,8.032,1.422,11.308l4.232-4.236l6.672,6.672l2.824-2.821l-6.674-6.675L39.4,29.132z"/>
	</g>
</g>
<g>
</g>
<g>
</g>
<g>
</g>
<g>
</g>
<g>
</g>
<g>
</g>
<g>
</g>
<g>
</g>
<g>
</g>
<g>
</g>
<g>
</g>
<g>
</g>
<g>
</g>
<g>
</g>
<g>
</g>
</svg>
