<?xml version="1.0" encoding="iso-8859-1"?>
<!-- Generator: Adobe Illustrator 16.0.0, SVG Export Plug-In . SVG Version: 6.00 Build 0)  -->
<!DOCTYPE svg PUBLIC "-//W3C//DTD SVG 1.1//EN" "http://www.w3.org/Graphics/SVG/1.1/DTD/svg11.dtd">
<svg version="1.1" id="Capa_1" xmlns="http://www.w3.org/2000/svg" xmlns:xlink="http://www.w3.org/1999/xlink" x="0px" y="0px"
	 width="476.142px" height="476.142px" viewBox="0 0 476.142 476.142" style="enable-background:new 0 0 476.142 476.142;"
	 xml:space="preserve">
<g>
	<g>
		<path d="M299.113,157.75c7.25,15.198,24.838,22.842,41.036,17.049c17.296-6.179,26.313-25.207,20.126-42.502
			c-0.506-1.411-1.227-2.675-1.896-3.978L299.113,157.75z"/>
		<path d="M439.746,40.167c18.358,0,33.246,14.888,33.246,33.253c0,18.364-14.888,33.258-33.246,33.258
			c-18.37,0-33.258-14.894-33.258-33.258C406.488,55.054,421.376,40.167,439.746,40.167z"/>
		<path d="M26.136,370.021c0.848-0.309,1.695-0.661,2.519-1.105l155.747-81.615l8.64,16.851c-1.17,0.697-2.292,1.52-3.328,2.485
			l-51.161,47.804L37.038,398.463c-9.906,4.292-14.467,15.809-10.167,25.728c4.125,9.506,14.894,14.086,24.509,10.644
			c0.411-0.148,0.818-0.309,1.229-0.485l104.61-45.348c2.06-0.886,3.933-2.12,5.574-3.654l48.604-45.408l0.1,0.208l1.663-1.848
			l3.266-3.054c1.401-1.303,2.473-2.805,3.4-4.359l103.251-114.932l75.492-16.548c0.641-0.143,1.286-0.323,1.915-0.553
			c1.899-0.681,3.671-1.731,5.182-3.092l65.281-58.648c6.432-5.781,6.961-15.677,1.187-22.105
			c-5.764-6.434-15.67-6.965-22.102-1.188l-62.199,55.888l-69.745,15.302l-33.334-20.125l-3.979-2.398l-3.995-2.413l19.788-9.82
			l57.459-28.527l37.51-18.621c7.758-3.857,10.904-13.245,7.061-20.987c-2.736-5.502-8.271-8.69-14.033-8.69
			c-2.341,0-4.709,0.525-6.949,1.639l-129.132,64.106c-1.109,0.553-2.132,1.227-3.041,1.99l-0.148-0.088l-0.581,0.824
			c-0.605,0.583-1.227,1.154-1.735,1.813c-0.798,1.054-1.419,2.224-1.93,3.424l-4.995,7.146l-3.334,4.771l-64.758,92.682
			L10.489,334.256c-9.568,5.009-13.267,16.843-8.25,26.421C6.832,369.409,17.101,373.248,26.136,370.021z"/>
	</g>
</g>
<g>
</g>
<g>
</g>
<g>
</g>
<g>
</g>
<g>
</g>
<g>
</g>
<g>
</g>
<g>
</g>
<g>
</g>
<g>
</g>
<g>
</g>
<g>
</g>
<g>
</g>
<g>
</g>
<g>
</g>
</svg>
