<?xml version="1.0" encoding="iso-8859-1"?>
<!-- Generator: Adobe Illustrator 18.1.1, SVG Export Plug-In . SVG Version: 6.00 Build 0)  -->
<svg version="1.1" id="Capa_1" xmlns="http://www.w3.org/2000/svg" xmlns:xlink="http://www.w3.org/1999/xlink" x="0px" y="0px"
	 viewBox="0 0 42.953 42.953" style="enable-background:new 0 0 42.953 42.953;" xml:space="preserve">
<g>
	<g>
		<g>
			<path style="fill:#010002;" d="M2.88,20.735c-0.238-0.238-0.508-0.36-0.598-0.269L0.898,21.85
				c-0.089,0.091,0.032,0.36,0.269,0.597l1.021,1.021l-0.275,1.503l1.503-0.273l0.733,0.732l-0.275,1.502l1.502-0.274l8.158,8.157
				l-0.274,1.502l1.502-0.273l1.001,1l-0.276,1.503l1.503-0.274l0.63,0.631l-0.275,1.503l1.503-0.275l0.515,0.515
				c0.235,0.235,0.504,0.357,0.595,0.267l1.384-1.384c0.091-0.092-0.032-0.36-0.267-0.596L2.88,20.735z"/>
			<path style="fill:#010002;" d="M16.586,25.729l1.016,1.017l-5.55,1.618l1.227,1.226l3.645-0.883l1.083,1.082l-3.591,0.938
				l1.213,1.213l1.774-0.49l0.945,0.945l-1.757,0.506l5.689,5.69c0,0,3.383-0.301,1.642-3.137c0,0-6.469-8.063-5.474-15.628
				c0,0,0.119-1.981-1.182-0.296L24.385,0h-7.711l-5.01,13.254c-0.093-0.135-0.214-0.255-0.38-0.348
				c-0.417-0.213-1.167-0.224-2.392,0.95L3.217,19.53l7.714,7.713L16.586,25.729z"/>
			<path style="fill:#010002;" d="M33.132,34.813c4.943,0,8.952-4.011,8.952-8.955c0-4.943-4.009-8.954-8.952-8.954
				c-4.947,0-8.954,4.009-8.954,8.954S28.184,34.813,33.132,34.813z M30.27,33.314c-0.178,0.093-0.342,0.177-0.476,0.242
				c-1.103-0.466-2.086-1.162-2.894-2.024c0.021-0.13,0.05-0.31,0.083-0.507c0.079-0.504,0.18-1.127,0.219-1.373
				c0.005-0.034,0.01-0.062,0.013-0.08c0.065,0.019,0.259,0.07,0.519,0.14c0.718,0.195,1.928,0.522,2.173,0.589
				c0.023,0.006,0.037,0.012,0.041,0.012c0.012,0.018,0.081,0.125,0.184,0.289c0.235,0.369,0.646,1.02,0.952,1.504
				c0.135,0.213,0.25,0.394,0.318,0.502c0.029,0.047,0.049,0.08,0.063,0.099C31.338,32.771,30.764,33.064,30.27,33.314z
				 M33.122,22.982c0.022,0.015,0.095,0.064,0.201,0.141c0.604,0.429,2.342,1.656,2.469,1.745c-0.003,0.006-0.006,0.019-0.01,0.032
				c-0.001,0.004-0.003,0.009-0.005,0.014c-0.129,0.396-0.964,2.96-1.017,3.121c-0.013,0-0.036,0-0.07,0c-0.091,0-0.252,0-0.458,0
				c-0.896,0-2.609,0-2.745,0c-0.052-0.161-0.886-2.725-1.016-3.121c-0.002-0.005-0.003-0.01-0.005-0.014
				c-0.004-0.015-0.01-0.026-0.012-0.032c0.126-0.089,1.863-1.316,2.47-1.745C33.03,23.047,33.101,22.997,33.122,22.982z
				 M32.925,22.796v-2.439l0.198,0.079l0.201-0.079v2.439l-0.201-0.141L32.925,22.796z M36.14,30.08l-0.016,0.003l-0.242,0.345
				l-1.494-2.126h0.489L36.14,30.08z M31.328,28.301h0.489l-1.493,2.104l-0.205-0.323L31.328,28.301z M33.085,32.814
				c-0.449,0-0.891-0.045-1.316-0.125l-0.299-0.476c0.517,0.13,1.059,0.2,1.616,0.2c0.591,0,1.164-0.078,1.709-0.225l-0.307,0.482
				C34.035,32.766,33.565,32.814,33.085,32.814z M36.436,33.53c-0.137-0.068-0.303-0.15-0.477-0.237
				c-0.494-0.246-1.052-0.523-1.177-0.585c0.015-0.022,0.04-0.063,0.076-0.118c0.074-0.117,0.188-0.303,0.324-0.517
				c0.438-0.695,1.078-1.704,1.113-1.761c0.066-0.018,1.326-0.359,2.121-0.573c0.287-0.079,0.514-0.14,0.6-0.163
				c0.004-0.001,0.012-0.004,0.015-0.004c0.026,0.14,0.146,0.795,0.245,1.349c0.033,0.188,0.065,0.364,0.091,0.505
				C38.559,32.323,37.56,33.043,36.436,33.53z M39.217,29.246l-0.562,0.152c0.615-0.937,0.999-2.037,1.074-3.221l0.359,0.451
				C39.972,27.57,39.668,28.457,39.217,29.246z M38.413,24.032c0.021-0.265,0.094-1.326,0.146-2.061
				c0.018-0.263,0.034-0.485,0.042-0.61c0.002-0.042,0.005-0.073,0.007-0.093c0.14,0.025,0.777,0.135,1.324,0.229
				c0.192,0.034,0.373,0.064,0.517,0.089c0.585,1.028,0.961,2.189,1.069,3.428c-0.105,0.1-0.234,0.226-0.375,0.361
				c-0.399,0.385-0.866,0.835-0.969,0.936c-0.012-0.014-0.028-0.037-0.05-0.063c-0.076-0.096-0.217-0.27-0.382-0.479
				c-0.352-0.441-0.828-1.039-1.105-1.388c-0.128-0.162-0.214-0.271-0.227-0.288C38.411,24.088,38.412,24.064,38.413,24.032z
				 M35.942,25.268l0.153-0.472l2.04-0.616l0.258,0.313L35.942,25.268z M38.354,21.068l-0.04,0.574
				c-0.743-0.941-1.731-1.677-2.87-2.11l0.536-0.208C36.892,19.733,37.698,20.33,38.354,21.068z M31.086,17.942
				c0.091-0.18,0.175-0.344,0.237-0.466c0.567-0.12,1.157-0.187,1.762-0.187s1.193,0.067,1.763,0.187
				c0.066,0.124,0.16,0.289,0.26,0.471c0.262,0.475,0.578,1.046,0.651,1.178c-0.024,0.009-0.071,0.026-0.131,0.05
				c-0.131,0.05-0.335,0.129-0.57,0.221c-0.585,0.229-1.368,0.535-1.733,0.675c-0.113,0.044-0.185,0.073-0.201,0.079
				c-0.013-0.006-0.086-0.035-0.198-0.079c-0.372-0.144-1.177-0.457-1.765-0.686c-0.248-0.096-0.457-0.177-0.579-0.226
				c-0.043-0.015-0.078-0.029-0.097-0.036C30.551,18.992,30.844,18.417,31.086,17.942z M30.224,19.307l0.54,0.211
				c-1.12,0.417-2.096,1.126-2.838,2.035l-0.038-0.563C28.539,20.279,29.334,19.704,30.224,19.307z M28.105,24.16l2.047,0.637
				l0.153,0.473l-2.428-0.8L28.105,24.16z M26.051,26.289c-0.142-0.137-0.626-0.605-1.019-0.984
				c-0.145-0.142-0.276-0.268-0.375-0.361c0.116-1.205,0.487-2.336,1.058-3.343c0.135-0.023,0.318-0.053,0.515-0.088
				c0.563-0.099,1.262-0.218,1.411-0.244c0,0.002,0,0.004,0,0.004c0.005,0.075,0.021,0.305,0.042,0.603
				c0.052,0.734,0.133,1.882,0.149,2.157c0.004,0.034,0.004,0.056,0.007,0.062c-0.014,0.018-0.102,0.125-0.229,0.288
				c-0.299,0.375-0.823,1.033-1.177,1.479c-0.181,0.224-0.316,0.396-0.359,0.449C26.067,26.307,26.057,26.297,26.051,26.289z
				 M26.098,26.707l0.352-0.443c0.085,1.143,0.459,2.201,1.051,3.11l-0.53-0.112c-0.46-0.785-0.75-1.619-0.876-2.561L26.098,26.707z
				"/>
			<path style="fill:#010002;" d="M36.458,38.014c-1.293,0.887-2.603,1.868-4.161,2.504c-1.546,0.64-3.202,1.08-4.896,1.367
				c-1.688,0.321-3.424,0.484-5.164,0.524l-0.02,0.212c1.743,0.3,3.517,0.363,5.298,0.32c1.778-0.084,3.568-0.328,5.332-0.816
				c1.737-0.497,3.598-1.122,4.98-2.489c1.377-1.323,2.352-3.137,2.405-5.004l-0.199-0.073
				C38.882,35.97,37.764,37.098,36.458,38.014z"/>
		</g>
	</g>
</g>
<g>
</g>
<g>
</g>
<g>
</g>
<g>
</g>
<g>
</g>
<g>
</g>
<g>
</g>
<g>
</g>
<g>
</g>
<g>
</g>
<g>
</g>
<g>
</g>
<g>
</g>
<g>
</g>
<g>
</g>
</svg>
