<?xml version="1.0" encoding="iso-8859-1"?>
<!-- Generator: Adobe Illustrator 16.0.0, SVG Export Plug-In . SVG Version: 6.00 Build 0)  -->
<!DOCTYPE svg PUBLIC "-//W3C//DTD SVG 1.1//EN" "http://www.w3.org/Graphics/SVG/1.1/DTD/svg11.dtd">
<svg version="1.1" id="Capa_1" xmlns="http://www.w3.org/2000/svg" xmlns:xlink="http://www.w3.org/1999/xlink" x="0px" y="0px"
	 width="528.167px" height="528.166px" viewBox="0 0 528.167 528.166" style="enable-background:new 0 0 528.167 528.166;"
	 xml:space="preserve">
<g>
	<g>
		<path d="M127.769,0c-31.566,0-57.26,25.762-57.26,57.346c0,31.805,25.704,57.433,57.26,57.433
			c31.748,0,57.614-25.627,57.614-57.433C185.383,25.762,159.526,0,127.769,0z"/>
		<path d="M33.444,452.373c-4.848,8.645-0.201,15.664,10.356,15.664h31.881c10.567,0,19.125-7.01,19.125-15.664
			c0-0.096-0.029-0.191-0.038-0.277l65.36-135.453c6.234-0.01,12.479-2.447,17.155-7.285l64.184-66.355
			c0.507-0.517,0.889-1.109,1.339-1.673l25.005,23.849l-81.291,73.756c-5.929,5.373-9.342,12.986-9.409,20.99
			s3.213,15.682,9.037,21.16L312.334,499.66c5.537,5.201,12.594,7.783,19.642,7.783c7.649,0,15.271-3.031,20.923-9.035
			c10.854-11.553,10.279-29.711-1.263-40.555l-103.552-97.299l49.333-44.762l18.082,57.365c1.588,5.039,4.552,9.543,8.539,13.014
			l125.097,108.773c11.953,10.395,30.084,9.133,40.469-2.82c10.395-11.963,9.132-30.074-2.821-40.469L367.788,348.189
			l-14.048-44.561v-88.797c0-15.836-9.811-36.979-21.917-47.201L239.87,78.938c-4.188-3.643-9.591-5.91-15.577-5.91
			c-13.206,0-23.906,10.701-23.906,23.906v119.78l-57.461,59.402c-8.865,9.16-8.845,23.553-0.296,32.799L80.664,437.332
			c-1.597-0.354-3.251-0.604-4.991-0.604H61.329C50.781,436.719,38.292,443.729,33.444,452.373z"/>
		<circle cx="70.508" cy="507.435" r="20.731"/>
	</g>
</g>
<g>
</g>
<g>
</g>
<g>
</g>
<g>
</g>
<g>
</g>
<g>
</g>
<g>
</g>
<g>
</g>
<g>
</g>
<g>
</g>
<g>
</g>
<g>
</g>
<g>
</g>
<g>
</g>
<g>
</g>
</svg>
