<?xml version="1.0" encoding="iso-8859-1"?>
<!-- Generator: Adobe Illustrator 16.0.0, SVG Export Plug-In . SVG Version: 6.00 Build 0)  -->
<!DOCTYPE svg PUBLIC "-//W3C//DTD SVG 1.1//EN" "http://www.w3.org/Graphics/SVG/1.1/DTD/svg11.dtd">
<svg version="1.1" id="Capa_1" xmlns="http://www.w3.org/2000/svg" xmlns:xlink="http://www.w3.org/1999/xlink" x="0px" y="0px"
	 width="150.501px" height="150.501px" viewBox="0 0 150.501 150.501" style="enable-background:new 0 0 150.501 150.501;"
	 xml:space="preserve">
<g>
	<g id="Sut7Eu_1_">
		<g>
			<g>
				<path d="M28.759,134.109c-2.229,0-4.461,0-6.685,0c-0.183-0.254-0.322-0.563-0.556-0.741c-1.066-0.792-1.348-1.447-1.041-2.701
					c0.094-0.376,0.254-0.736,0.363-1.107c0.406-1.36,0.229-2.036-0.939-2.858c-1.15-0.808-1.77-1.808-1.542-3.25
					c0.079-0.487,0.104-0.99,0.231-1.468c0.447-1.665,1.028-3.296,1.381-4.977c0.886-4.179,1.389-8.419,1.409-12.694
					c0.005-1.452,0.033-2.895-0.02-4.342c-0.036-0.939,0.287-1.569,1.112-2.047c0.708-0.416,1.432-0.919,1.95-1.543
					c2.445-2.966,3.605-6.479,3.968-10.253c0.338-3.483-0.282-6.865-1.361-10.166c-1.452-4.431-2.887-8.846-3.443-13.52
					c-0.317-2.679-0.015-5.076,1.409-7.333c0.15-0.233,0.343-0.452,0.442-0.706c0.774-1.965,0.16-3.105-1.628-3.572
					c-1.239-0.322-2.396-0.287-3.598,0.046c-2.96,0.817-5.377,3.948-5.502,7.025c-0.094,2.312,0.516,4.4,1.808,6.292
					c1.041,1.508,2.191,2.943,3.169,4.489c1.376,2.173,2.458,4.451,2.453,7.15c-0.005,1.991-0.299,3.862-1.267,5.573
					c3.28,5.479,2.179,13.716-0.193,15.813c0-1.396,0-2.646,0-3.9c-0.104,2.143-0.858,4.053-1.871,5.855
					c-0.792,1.401-1.666,2.762-2.575,4.087c-0.817,1.193-2.838-8.409-1.899-11.628c0.759-2.595,0.023-4.88-1.087-7.155
					c0.089,1.239,0.843,2.387,0.574,3.88c-0.231-0.274-0.381-0.376-0.406-0.503c-0.307-1.533-1.181-2.737-2.199-3.859
					c-1.239-1.355-2.534-2.655-3.694-4.072c-1.559-1.892-3.009-3.925-3.732-6.264c-0.531-1.717-1.305-3.25-2.138-4.812
					C0.983,67.583,0.541,66.207,0,64.882c0-2.231,0-4.464,0-6.688c0.089-0.135,0.234-0.254,0.264-0.401
					c0.739-3.895,2.514-7.175,5.611-9.719c3.194-2.615,6.708-3.951,10.91-3.321c2.438,0.363,4.789,0.919,7.021,1.944
					c2.257,1.034,4.431,1.176,6.698-0.053c2.89-1.56,5.855-2.953,9.006-3.926c2.859-0.878,5.792-1.221,8.719-0.848
					c3.011,0.381,5.984,1.082,8.944,1.79c3.951,0.939,7.904,1.747,12.002,1.493c0.165-0.013,0.333-0.005,0.498-0.005
					c3.412,0.011,6.728-0.355,9.858-1.924c2.194-1.102,4.286-2.31,6.124-3.953c2.153-1.917,4.367-3.755,6.541-5.657
					c0.99-0.874,2.076-1.706,2.854-2.75c1.239-1.681,2.615-3.158,4.428-4.212c0.879-0.511,1.635-1.135,1.965-2.158
					c0.493-1.562,1.641-2.471,3.093-3.06c1.153-0.462,2.174-1.097,3.007-2.046c1.147-1.338,2.641-1.998,4.397-1.988
					c0.812,0,1.396-0.29,1.767-1.008c3.229,0,6.459,0,9.699,0c0.076,0.074,0.152,0.198,0.233,0.213
					c0.965,0.198,2.016-0.01,2.895,0.625c0.102,0.076,0.346,0.056,0.478-0.005c0.762-0.351,1.401-0.043,2.062,0.299
					c0.935,0.495,1.868,0.968,2.996,0.892c0.335-0.028,0.695,0.269,1.046,0.432c0.6,0.279,1.198,0.576,1.798,0.863
					c0.599,0.284,1.325,0.437,1.787,0.868c1.818,1.704,3.788,3.275,5.118,5.443c0.279,0.447,0.747,0.795,1.174,1.127
					c0.949,0.754,1.975,1.419,2.889,2.216c0.539,0.467,1.057,0.765,1.777,0.739c0.95-0.038,1.899-0.008,2.844-0.008
					c0,0.226,0,0.449,0,0.673c-0.497,0.343-0.995,0.681-1.523,1.043c0.406,0.267,0.736,0.49,1.214,0.807
					c-0.848,0.478-1.595,0.828-2.249,1.3c-0.782,0.566-1.646,0.401-2.596,0.343c0.016,1.145-0.584,1.81-1.447,2.308
					c-0.233,0.137-0.406,0.381-0.609,0.574c-0.406,0.378-0.589,0.878-0.386,1.366c0.609,1.419-0.122,2.491-1.076,3.22
					c-1.432,1.087-2.072,2.531-2.671,4.113c-1.117,2.907-2.346,5.761-3.52,8.647c-0.208,0.508-0.37,1.039-0.487,1.574
					c-0.224,1.041-0.462,1.285-1.468,1.508c-0.538,0.109-1.086,0.244-1.554,0.51c-2.143,1.206-4.793-0.129-5.098-2.59
					c-0.057-0.406-0.193-0.873-0.447-1.176c-1.025-1.211-1.122-1.493-0.122-2.684c0.874-1.038,1.066-2.224,0.874-3.44
					c-0.315-2.077-0.635-4.156-1.447-6.131c-0.768-1.866-0.884-3.776,0.167-5.626c0.152-0.264,0.183-0.597,0.249-0.843
					c-0.168-0.165-0.233-0.29-0.32-0.317c-2.254-0.576-4.509,1.056-4.56,3.344c-0.041,2.059-0.056,4.123,0.021,6.183
					c0.142,3.948-0.559,7.754-1.93,11.42c-0.894,2.392-0.96,4.611,0.472,6.833c0.849,1.315,1.062,2.884,0.676,4.352
					c-0.437,1.647-0.122,3.191,0.132,4.773c0.117,0.69,0.523,1.013,1.27,1.041c1.808,0.061,3.524,0.611,5.108,1.409
					c2.356,1.183,4.702,2.193,7.404,2.323c1.264,0.059,2.011,0.917,1.935,2.247c-0.062,1.092,0.167,2.204,0.254,3.307
					c0.142,1.695-0.051,3.199-1.244,4.641c-2.26,2.742-4.357,5.627-5.784,8.928c-0.665,1.549-1.782,2.265-3.509,2.305
					c-1.249,0.021-2.63,0.041-3.636,0.945c-1.65,1.482-3.717,1.635-5.729,1.96c-0.781,0.122-1.422-0.335-1.492-0.985
					c-0.184-1.736,0.705-3.082,1.609-4.434c0.736-1.092,1.812-0.898,2.859-0.919c0.954-0.021,1.858-0.04,2.609,0.777
					c0.254,0.269,0.904,0.178,1.447,0.259c0.097-0.427,0.147-0.69,0.219-0.949c0.314-1.143,0.848-1.996,2.198-2.174
					c0.544-0.076,1.153-0.482,1.528-0.914c1.179-1.335,2.225-2.772,2.945-4.423c0.366-0.812,0.355-1.584,0.051-2.422
					c-0.223-0.604-0.324-1.274-0.411-1.925c-0.116-0.873-0.573-1.279-1.447-1.143c-0.649,0.106-1.29,0.32-1.949,0.416
					c-2.026,0.285-4.053,0.747-6.089,0.736c-1.681-0.005-3.428-0.213-4.986-1.106c-1.128-0.65-2.352-0.976-3.687-0.731
					c-0.706,0.132-1.427,0.233-2.138,0.233c-0.752,0-1.219,0.224-1.58,0.935c-1.203,2.392-2.239,4.834-2.863,7.444
					c-0.239,0.97-0.574,1.909-0.909,2.854c-0.447,1.249-1.046,2.458-1.387,3.737c-0.573,2.153-0.731,4.367-0.7,6.602
					c0.015,0.817-0.066,1.681-0.311,2.458c-0.939,2.976-1.3,6.058-1.695,9.13c-0.117,0.93-0.341,1.879-0.265,2.804
					c0.112,1.259,0.457,2.498,0.711,3.742c0.163,0.812,0.442,1.609,0.513,2.433c0.087,0.97,0.417,1.706,1.301,2.173
					c0.64,0.335,1.224,0.808,1.894,1.041c2.265,0.792,3.037,2.696,3.885,4.697c-0.386,0.218-0.604,0.406-0.853,0.472
					c-2.139,0.564-4.281,0.533-6.424,0.006c-1.016-0.249-1.463-0.935-1.473-1.945c0-0.554-0.011-1.117,0.021-1.67
					c0.102-1.473-0.564-2.448-1.884-3.017c-0.355-0.157-0.717-0.3-1.092-0.417c-0.914-0.279-1.392-0.894-1.402-1.843
					c-0.01-1.173-0.03-2.347,0.051-3.509c0.173-2.601,0.498-5.189,0.569-7.79c0.04-1.533-0.315-3.077-0.432-4.621
					c-0.087-1.214-0.157-2.438-0.081-3.65c0.106-1.655,0.522-3.296,0.522-4.946c-0.005-3.56-0.097-7.114-0.345-10.658
					c-0.107-1.468-0.604-2.936-1.098-4.337c-0.477-1.341-1.543-2.194-2.976-2.372c-0.873-0.106-1.787-0.045-2.661,0.046
					c-2.417,0.265-4.823,0.762-7.251,0.843c-2.879,0.102-5.761,0.214-8.658-0.203c-2.729-0.391-5.309-1.102-7.79-2.274
					c-0.774-0.36-1.633-0.544-2.666-0.874c-0.163,1.107-0.328,2.031-1.13,2.631c-0.099,0.071-0.094,0.31-0.114,0.478
					c-0.119,0.929-0.229,1.868-0.338,2.793c-0.198,1.706-0.411,3.402-0.586,5.108c-0.271,2.544-1.338,4.895-1.556,7.484
					c-0.244,2.956-0.333,5.881,0.251,8.775c0.998,4.945,2.839,9.587,5.558,13.842c1.424,2.234,3.199,4.129,5.672,5.251
					c0.713,0.325,1.404,0.681,2.097,1.041c1.59,0.849,3.052,3.001,3.359,5.062c-0.967,0.143-1.94,0.406-2.912,0.406
					c-1.435-0.01-2.877-0.152-4.306-0.33c-1.176-0.146-2.075-1.406-1.742-2.563c0.327-1.148-0.021-1.899-0.843-2.646
					c-0.779-0.716-1.579-1.208-2.671-1.132c-1.531,0.111-2.534-0.66-3.168-1.98c-0.19-0.406-0.368-0.812-0.526-1.229
					c-1.813-4.905-3.748-9.76-6.274-14.35c-0.698-1.265-1.308-2.631-2.252-3.697c-1.404-1.563-1.343-3.133-0.774-4.945
					c1.186-3.783,1.32-7.668,0.518-11.527c-0.546-2.631-2.168-4.677-4.189-6.394c-0.261,0.147-0.417,0.214-0.541,0.31
					c-1.32,1.107-2.585,2.285-3.974,3.301c-1.795,1.311-3.072,3.037-4.134,4.926c-1.731,3.077-3.895,5.805-6.38,8.298
					c-0.625,0.63-1.16,1.351-1.716,2.041c-1.892,2.372-3.295,4.992-4.237,7.892c-1.117,3.442-1.783,6.982-2.412,10.526
					c-0.224,1.315-0.084,2.687,0.561,3.895c0.576,1.077,0.843,2.098,0.472,3.342c-0.322,1.076-0.03,2.184,1,2.793
					c1.767,1.025,2.432,2.823,3.384,4.438C29.219,133.227,29,133.658,28.759,134.109z"/>
			</g>
		</g>
	</g>
</g>
<g>
</g>
<g>
</g>
<g>
</g>
<g>
</g>
<g>
</g>
<g>
</g>
<g>
</g>
<g>
</g>
<g>
</g>
<g>
</g>
<g>
</g>
<g>
</g>
<g>
</g>
<g>
</g>
<g>
</g>
</svg>
