<?xml version="1.0" encoding="iso-8859-1"?>
<!-- Generator: Adobe Illustrator 16.0.0, SVG Export Plug-In . SVG Version: 6.00 Build 0)  -->
<!DOCTYPE svg PUBLIC "-//W3C//DTD SVG 1.1//EN" "http://www.w3.org/Graphics/SVG/1.1/DTD/svg11.dtd">
<svg version="1.1" id="Capa_1" xmlns="http://www.w3.org/2000/svg" xmlns:xlink="http://www.w3.org/1999/xlink" x="0px" y="0px"
	 width="465.925px" height="465.925px" viewBox="0 0 465.925 465.925" style="enable-background:new 0 0 465.925 465.925;"
	 xml:space="preserve">
<g>
	<g id="_x34_8_49_">
		<g>
			<path d="M88.066,169.652c-20.659,3.066-28.628,7.501-45.04,25.076c-18.39,19.694-30.219,51.143-29.696,81.088
				c0,33.438,10.888,63.26,27.897,82.72c-0.034,0.288-0.056,0.579-0.056,0.876v58.372c0,4.122,3.342,7.464,7.464,7.464h71.601
				c4.123,0,7.464-3.342,7.464-7.464v-58.372c0-0.764-0.116-1.499-0.329-2.191c17.83-23.558,28.244-56.925,27.345-67.464
				c-1.112-13.039-14.631-33.254-31.016-28.374c-13.384,3.986-21.368,22.596-29.697,21.611c-7.05-0.834-4.46-13.789,3.135-26.398
				c12.311-20.436,61.373,8.416,65.992-30.188C167.752,187.801,134.756,162.724,88.066,169.652z M112.773,410.32H56.101v-43.444
				h56.672V410.32z"/>
			<path d="M422.897,194.729c-16.409-17.575-24.38-22.01-45.039-25.076c-46.689-6.929-79.687,18.148-75.066,56.754
				s53.682,9.754,65.991,30.188c7.597,12.609,10.186,25.564,3.136,26.398c-8.328,0.982-16.313-17.625-29.696-21.611
				c-16.385-4.88-29.903,15.335-31.016,28.374c-0.899,10.539,9.515,43.905,27.346,67.462c-0.213,0.694-0.329,1.43-0.329,2.193
				v58.372c0,4.122,3.342,7.464,7.464,7.464h71.602c4.122,0,7.464-3.342,7.464-7.464v-58.372c0-0.297-0.022-0.588-0.056-0.875
				c17.009-19.46,27.897-49.281,27.897-82.721C453.115,245.871,441.287,214.423,422.897,194.729z M409.823,410.32h-56.674v-43.444
				h56.674V410.32z"/>
			<path d="M283.09,216.996c-0.021-0.122-0.025-0.244-0.059-0.367l-0.027-0.104c-0.146-0.664-0.324-1.32-0.521-1.971L241.43,59.775
				c12.864-3.556,22.341-15.357,22.341-29.337C263.771,13.654,250.115,0,233.331,0s-30.438,13.654-30.438,30.438
				c0,14.025,9.537,25.858,22.465,29.372l-38.685,152.018c-1.356,3.133-2.093,6.452-2.093,9.892c0,0.337,0.023,0.669,0.037,1.004
				h-0.037v211.833h0.197c2.181,17.574,23.411,31.367,49.297,31.367c25.885,0,47.117-13.793,49.297-31.367h0.196V222.724h-0.036
				c0.014-0.335,0.036-0.667,0.036-1.004C283.567,220.116,283.397,218.541,283.09,216.996z M200.848,196.262l27.534-108.197v99.538
				C217.843,188.441,208.309,191.569,200.848,196.262z M267.406,196.33c-7.824-4.951-17.948-8.174-29.126-8.828V86.515
				L267.406,196.33z M212.791,30.438c0-11.326,9.214-20.54,20.54-20.54s20.54,9.214,20.54,20.54c0,9.398-6.352,17.323-14.982,19.756
				l-0.658-2.485c-0.347-2.396-2.407-4.235-4.898-4.235c-2.504,0-4.574,1.86-4.904,4.273l-0.625,2.455
				C219.157,47.779,212.791,39.848,212.791,30.438z"/>
		</g>
	</g>
</g>
<g>
</g>
<g>
</g>
<g>
</g>
<g>
</g>
<g>
</g>
<g>
</g>
<g>
</g>
<g>
</g>
<g>
</g>
<g>
</g>
<g>
</g>
<g>
</g>
<g>
</g>
<g>
</g>
<g>
</g>
</svg>
