<?xml version="1.0" encoding="iso-8859-1"?>
<!-- Generator: Adobe Illustrator 16.0.0, SVG Export Plug-In . SVG Version: 6.00 Build 0)  -->
<!DOCTYPE svg PUBLIC "-//W3C//DTD SVG 1.1//EN" "http://www.w3.org/Graphics/SVG/1.1/DTD/svg11.dtd">
<svg version="1.1" id="Capa_1" xmlns="http://www.w3.org/2000/svg" xmlns:xlink="http://www.w3.org/1999/xlink" x="0px" y="0px"
	 width="497.603px" height="497.604px" viewBox="0 0 497.603 497.604" style="enable-background:new 0 0 497.603 497.604;"
	 xml:space="preserve">
<g>
	<g>
		<path d="M302.634,209.141c1.529-0.354,37.896-8.845,59-20.559c6.235-3.462,11.753-7.239,17.098-10.892
			c12.011-8.214,23.352-15.969,42.104-19.469c21.095-3.939,56.284-24.441,68.467-57.671c6.465-17.633,8.74-45.297-17.107-77.045
			c-0.43-0.526-0.898-1.014-1.396-1.482C454.964,7.411,438.039,0,420.492,0c-43.729,0-75.458,46.952-82.726,72.091
			c-5.288,18.36-14.095,28.898-23.408,40.048c-4.15,4.973-8.435,10.107-12.479,15.969c-13.961,20.253-23.476,55.376-23.878,56.859
			c-0.717,2.687-0.621,5.46,0.182,8.013l-29.376,30.485l-29.375-30.485c0.803-2.553,0.899-5.326,0.172-8.013
			c-0.401-1.482-9.916-36.605-23.877-56.859c-4.045-5.862-8.329-10.997-12.479-15.969c-9.324-11.15-18.13-21.697-23.409-40.048
			C152.56,46.952,120.841,0,77.112,0C59.564,0,42.648,7.411,26.804,22.022c-0.498,0.468-0.966,0.966-1.396,1.491
			C-0.44,55.252,1.836,82.926,8.3,100.559c12.183,33.239,47.373,53.731,68.467,57.671c18.752,3.5,30.093,11.255,42.104,19.469
			c5.345,3.653,10.863,7.42,17.098,10.892c21.104,11.714,57.471,20.196,59,20.56c0.058,0.019,0.125,0.009,0.182,0.019l33.717,34.999
			L8.09,473.306c-5.499,5.708-5.336,14.783,0.373,20.281c2.783,2.678,6.369,4.017,9.955,4.017c3.768,0,7.516-1.463,10.327-4.39
			l220.062-228.381l220.062,228.381c2.812,2.927,6.56,4.39,10.327,4.39c3.586,0,7.172-1.339,9.955-4.017
			c5.709-5.498,5.871-14.573,0.373-20.281L268.725,244.159l33.718-34.999C302.509,209.151,302.577,209.16,302.634,209.141z
			 M356.452,151.699c-2.314-2.496-5.001-5.259-8.539-8.625c-0.995-0.956-1.798-1.673-2.706-2.524
			c6.588-6.742,13.015-13.541,19.259-20.349c1.759,1.559,3.604,3.242,5.651,5.192c2.754,2.62,4.981,4.868,6.971,6.923
			C370.087,138.723,363.165,145.216,356.452,151.699z M402.208,100.894c1.759,1.674,3.146,3.232,4.638,4.829
			c-7.889,6.885-16.142,14.181-24.471,21.745c-2.132-2.189-4.494-4.561-7.324-7.268c-2.085-1.989-3.931-3.634-5.786-5.278
			c7.411-8.224,14.487-16.333,21.086-24.117C394.176,93.75,398.116,96.973,402.208,100.894z M394.989,85.307
			c5.995-7.172,11.561-13.971,16.581-20.244c3.845,2.964,7.812,6.206,11.943,10.155c3.204,3.06,5.9,6.091,8.319,9.065
			c-5.919,5.001-12.479,10.585-19.498,16.658c-1.615-1.711-3.309-3.442-5.183-5.24C402.955,91.685,398.91,88.348,394.989,85.307z
			 M368.892,149.729c4.322-4.083,8.684-8.147,13.082-12.173c0.966,1.09,1.808,2.085,2.505,2.955
			C378.742,143.418,373.645,146.583,368.892,149.729z M415.567,130.021c-9.409,1.76-17.403,4.351-24.461,7.382
			c-1.042-1.396-2.305-2.936-3.854-4.676c8.301-7.525,16.515-14.803,24.365-21.659c5.527,6.693,8.97,12.469,10.93,16.906
			C420.081,128.883,417.709,129.62,415.567,130.021z M429.146,125.077c-2.257-5.078-5.996-11.456-12.068-18.762
			c6.847-5.919,13.254-11.379,19.049-16.275c6.503,9.477,9.391,17.652,10.652,22.797
			C441.233,117.943,435.065,122.084,429.146,125.077z M462.375,90.671c-2.171,5.91-5.661,11.293-9.782,16.113
			c-1.836-5.737-5.135-13.206-10.892-21.43c12.728-10.662,21.19-17.499,21.917-18.102C465.55,75.285,465.149,83.098,462.375,90.671z
			 M450.594,42.419c4.944,6.206,8.597,12.345,10.959,18.389c-0.794-0.009-1.606,0.201-2.276,0.736
			c-0.258,0.21-8.883,7.162-21.917,18.092c-2.582-3.156-5.508-6.378-8.902-9.62c-4.294-4.103-8.415-7.488-12.412-10.576
			c9.343-11.81,16.381-21.133,20.482-26.68C441.213,35.037,445.899,38.192,450.594,42.419z M420.501,28.697
			c2.993,0,6.034,0.574,9.065,1.416c-4.208,5.651-10.768,14.305-19.25,25.006c-8.539-5.958-15.807-9.649-20.961-11.857
			C398.393,34.836,409.169,28.697,420.501,28.697z M383.944,48.797c4.562,1.797,12.384,5.422,21.879,11.981
			c-5.021,6.264-10.566,13.043-16.543,20.187c-7.803-5.47-14.573-9.037-19.66-11.332C373.033,62.873,377.958,55.472,383.944,48.797z
			 M365.335,80.057c0.354-1.214,0.803-2.515,1.319-3.854c4.6,2.094,10.815,5.384,17.939,10.318
			c-6.521,7.688-13.483,15.673-20.799,23.763c-3.117-2.515-5.985-4.667-8.386-6.178C359.196,97.289,362.629,89.457,365.335,80.057z
			 M336.38,130.547c5.02-6.015,10.365-12.44,15.338-20.215c1.97,1.233,4.342,2.897,7.277,5.24
			c-6.178,6.751-12.575,13.493-19.106,20.167c-1.74-1.501-3.279-2.773-4.638-3.806C335.634,131.465,335.988,131.016,336.38,130.547z
			 M325.498,144.403c1.646-2.391,3.396-4.695,5.212-6.971c1.1,0.841,2.524,2.027,4.131,3.423
			c-5.221,5.221-10.5,10.356-15.835,15.338C321.061,151.843,323.232,147.702,325.498,144.403z M340.157,145.656
			c0.928,0.861,1.76,1.606,2.803,2.601c3.538,3.385,6.234,6.139,8.367,8.415c-3.386,3.309-6.656,6.598-9.85,9.84
			c-5.689,2.572-12.173,4.982-18.704,7.114c-0.688-1.291-1.406-2.572-2.516-3.634c-1.004-0.975-2.218-1.549-3.413-2.17
			C324.743,160.736,332.536,153.296,340.157,145.656z M166.894,137.432c1.817,2.276,3.567,4.581,5.212,6.971
			c2.266,3.299,4.437,7.43,6.502,11.781c-5.346-4.982-10.614-10.117-15.835-15.338C164.379,139.459,165.794,138.273,166.894,137.432
			z M161.233,130.547c0.392,0.469,0.746,0.918,1.138,1.377c-1.367,1.033-2.907,2.305-4.638,3.806
			c-6.541-6.675-12.929-13.417-19.106-20.167c2.936-2.343,5.307-4.007,7.277-5.24C150.858,118.106,156.204,124.532,161.233,130.547z
			 M132.269,80.057c2.706,9.4,6.148,17.231,9.926,24.059c-2.4,1.501-5.269,3.663-8.386,6.177
			c-7.315-8.099-14.277-16.084-20.798-23.763c7.124-4.934,13.349-8.224,17.939-10.318C131.465,77.542,131.915,78.843,132.269,80.057
			z M95.405,100.894c4.093-3.911,8.033-7.143,11.848-10.088c6.598,7.784,13.674,15.893,21.085,24.117
			c-1.855,1.645-3.71,3.29-5.786,5.278c-2.83,2.707-5.192,5.068-7.325,7.268c-8.329-7.564-16.572-14.87-24.47-21.745
			C92.259,104.116,93.646,102.558,95.405,100.894z M90.452,95.701c-1.874,1.798-3.567,3.529-5.183,5.24
			C78.25,94.86,71.69,89.275,65.771,84.284c2.419-2.974,5.116-6.005,8.319-9.065c4.131-3.939,8.099-7.191,11.943-10.155
			c5.021,6.273,10.595,13.072,16.582,20.244C98.704,88.348,94.659,91.685,90.452,95.701z M127.994,69.634
			c-5.078,2.295-11.848,5.862-19.661,11.332c-5.977-7.143-11.523-13.923-16.543-20.187c9.496-6.56,17.327-10.184,21.879-11.981
			C119.656,55.472,124.58,62.873,127.994,69.634z M77.112,28.697c11.332,0,22.108,6.149,31.145,14.564
			c-5.154,2.208-12.431,5.9-20.961,11.857c-8.482-10.701-15.032-19.354-19.249-25.006C71.078,29.261,74.109,28.697,77.112,28.697z
			 M47.009,42.419c4.695-4.227,9.381-7.392,14.057-9.667c4.112,5.546,11.15,14.87,20.493,26.679
			c-3.997,3.089-8.119,6.483-12.412,10.576c-3.385,3.242-6.321,6.464-8.903,9.62C47.21,68.697,38.584,61.754,38.327,61.534
			c-0.669-0.545-1.482-0.746-2.276-0.736C38.413,54.764,42.065,48.635,47.009,42.419z M35.238,90.671
			c-2.773-7.574-3.175-15.386-1.243-23.409c0.727,0.593,9.189,7.43,21.917,18.102c-5.757,8.224-9.046,15.702-10.892,21.43
			C40.889,101.965,37.399,96.581,35.238,90.671z M50.825,112.837c1.262-5.145,4.16-13.321,10.652-22.797
			c5.795,4.896,12.202,10.356,19.049,16.275c-6.072,7.306-9.802,13.684-12.068,18.762C62.539,122.084,56.38,117.943,50.825,112.837z
			 M106.498,137.403c-7.048-3.021-15.042-5.623-24.461-7.382c-2.142-0.401-4.514-1.138-6.98-2.056
			c1.97-4.437,5.403-10.204,10.939-16.907c7.851,6.856,16.065,14.124,24.365,21.659C108.802,134.468,107.54,136.007,106.498,137.403
			z M113.125,140.501c0.698-0.87,1.54-1.855,2.505-2.955c4.398,4.035,8.759,8.099,13.082,12.173
			C123.958,146.583,118.872,143.418,113.125,140.501z M141.162,151.699c-6.713-6.483-13.646-12.976-20.626-19.383
			c1.989-2.056,4.208-4.293,6.961-6.923c2.046-1.951,3.892-3.633,5.652-5.192c6.234,6.809,12.661,13.607,19.259,20.349
			c-0.909,0.851-1.712,1.568-2.707,2.524C146.163,146.44,143.476,149.204,141.162,151.699z M177.346,170.002
			c-1.1,1.062-1.817,2.343-2.515,3.634c-6.531-2.142-13.015-4.552-18.704-7.115c-3.194-3.251-6.474-6.541-9.85-9.84
			c2.133-2.276,4.829-5.03,8.367-8.415c1.042-0.995,1.875-1.75,2.802-2.601c7.631,7.64,15.415,15.07,23.313,22.175
			C179.564,168.453,178.35,169.036,177.346,170.002z"/>
	</g>
</g>
<g>
</g>
<g>
</g>
<g>
</g>
<g>
</g>
<g>
</g>
<g>
</g>
<g>
</g>
<g>
</g>
<g>
</g>
<g>
</g>
<g>
</g>
<g>
</g>
<g>
</g>
<g>
</g>
<g>
</g>
</svg>
