<?xml version="1.0" encoding="iso-8859-1"?>
<!-- Generator: Adobe Illustrator 16.0.0, SVG Export Plug-In . SVG Version: 6.00 Build 0)  -->
<!DOCTYPE svg PUBLIC "-//W3C//DTD SVG 1.1//EN" "http://www.w3.org/Graphics/SVG/1.1/DTD/svg11.dtd">
<svg version="1.1" id="Capa_1" xmlns="http://www.w3.org/2000/svg" xmlns:xlink="http://www.w3.org/1999/xlink" x="0px" y="0px"
	 width="24.002px" height="24.002px" viewBox="0 0 24.002 24.002" style="enable-background:new 0 0 24.002 24.002;"
	 xml:space="preserve">
<g>
	<path d="M24.001,1.001c0,0.6-1.3,1-3,1s-3-0.4-3-1s1.3-1,3-1S24.001,0.401,24.001,1.001z M9,5.001c1.104,0,2-0.896,2-2
		s-0.896-2-2-2s-2,0.896-2,2S7.896,5.001,9,5.001z M16.447,0.106c-0.493-0.248-1.096-0.047-1.342,0.447l-1.91,3.821l-0.202,0.174
		l-2.292,1.453H7L6.999,6.021c-0.19,0-0.382,0.036-0.552,0.15l-3,2c-0.11,0.073-0.204,0.167-0.277,0.277l-2,3
		c-0.306,0.459-0.182,1.081,0.277,1.388C1.618,12.947,1.811,13.002,2,13.002c0.323,0,0.64-0.156,0.833-0.444l1.889-2.833l1.904-1.27
		l-0.68,4.453l-1.689,3.718l-3.627,1.45c-0.513,0.205-0.763,0.787-0.558,1.3C0.229,19.767,0.604,20.002,1,20.002
		c0.124,0,0.249-0.021,0.371-0.069l4-1.602c0.18-0.072,0.319-0.205,0.43-0.361L5.8,18.002l2.4-3.7L9,17.575v0.149l-2.857,4.762
		c-0.284,0.475-0.131,1.089,0.343,1.373c0.16,0.097,0.338,0.143,0.513,0.143c0.34,0,0.671-0.173,0.858-0.483l3-5
		C10.953,18.361,11,18.185,11,18.002v-5l0.989-4.945l0.952-0.821l1.76-1.434l-0.034-0.059c0.093-0.083,0.172-0.182,0.229-0.294l2-4
		C17.144,0.956,16.941,0.355,16.447,0.106z"/>
</g>
<g>
</g>
<g>
</g>
<g>
</g>
<g>
</g>
<g>
</g>
<g>
</g>
<g>
</g>
<g>
</g>
<g>
</g>
<g>
</g>
<g>
</g>
<g>
</g>
<g>
</g>
<g>
</g>
<g>
</g>
</svg>
