<?xml version="1.0" encoding="iso-8859-1"?>
<!-- Generator: Adobe Illustrator 16.0.0, SVG Export Plug-In . SVG Version: 6.00 Build 0)  -->
<!DOCTYPE svg PUBLIC "-//W3C//DTD SVG 1.1//EN" "http://www.w3.org/Graphics/SVG/1.1/DTD/svg11.dtd">
<svg version="1.1" id="Capa_1" xmlns="http://www.w3.org/2000/svg" xmlns:xlink="http://www.w3.org/1999/xlink" x="0px" y="0px"
	 width="536.953px" height="536.953px" viewBox="0 0 536.953 536.953" style="enable-background:new 0 0 536.953 536.953;"
	 xml:space="preserve">
<g>
	<g>
		<circle cx="45.89" cy="61.152" r="45.89"/>
		<circle cx="459.583" cy="107.052" r="45.89"/>
		<path d="M528.271,215.099c-1.052-8.816-6.627-16.457-14.735-20.12L455.213,168.5l-49.696-25.168
			c-1.769-1.425-3.672-2.706-5.853-3.653l-40.611-17.432c-1.549-0.67-3.175-1.176-4.829-1.53l-75.057-15.673
			c-13.712-2.878-27.195,5.938-30.064,19.67c-2.869,13.751,5.938,27.205,19.67,30.064l72.579,15.166l19.947,8.559l-26.622,35.333
			l-142.08-52.03c-15.023-5.489-31.719,2.219-37.236,17.299c-4.495,12.269-0.096,25.503,9.801,33l-24.843,9.113l-16.973-63.428
			l9.352-2.008c8.578-1.836,15.596-7.994,18.57-16.247l28.056-78.106c4.743-13.206-2.113-27.741-15.319-32.493
			c-13.158-4.733-27.731,2.113-32.494,15.319l-22.701,63.151l-10.395,3.787l-3.768,0.813c-3.242,0.698-6.187,2.027-8.778,3.768
			L48.558,129.39c-11.303,4.121-17.538,16.753-13.923,28.229l50.882,162.027l0.622-0.373l5.317,56.266L40.344,479.885
			c-7.066,14.4-1.109,31.795,13.292,38.833c4.112,2.008,8.473,2.974,12.747,2.974c10.739,0,21.057-5.967,26.105-16.256
			l54.726-111.729c2.362-4.801,3.347-10.155,2.84-15.491l-8.664-91.676c-0.01-0.144-0.067-0.258-0.086-0.401l14.134-8.491
			l-0.039-0.125l43.442-15.931l43.29,37.887c5.508,4.829,12.326,7.2,19.106,7.2c8.09,0,16.132-3.366,21.86-9.916
			c10.557-12.068,9.343-30.409-2.716-40.966l-0.028-0.029l44.255,16.208c1.817,0.66,3.672,1.09,5.518,1.367l0.335,0.469
			c-0.335,2.534-0.469,5.106-0.105,7.765l13.445,98.255l-6.723,99.115c-1.081,15.988,11.006,29.835,26.995,30.915
			c0.669,0.048,1.339,0.067,1.998,0.067c15.138,0,27.894-11.743,28.937-27.062l6.933-102.052c0.124-1.979,0.058-3.949-0.21-5.909
			l-10.94-79.837l26.269-34.215l30.036-40.258l32.426,14.717l6.809,57.27c1.54,12.919,12.508,22.395,25.207,22.395
			c0.994,0,2.008-0.047,3.013-0.172c13.941-1.664,23.887-14.296,22.223-28.219L528.271,215.099z"/>
	</g>
</g>
<g>
</g>
<g>
</g>
<g>
</g>
<g>
</g>
<g>
</g>
<g>
</g>
<g>
</g>
<g>
</g>
<g>
</g>
<g>
</g>
<g>
</g>
<g>
</g>
<g>
</g>
<g>
</g>
<g>
</g>
</svg>
