<?xml version="1.0" encoding="iso-8859-1"?>
<!-- Generator: Adobe Illustrator 18.1.1, SVG Export Plug-In . SVG Version: 6.00 Build 0)  -->
<svg version="1.1" id="Capa_1" xmlns="http://www.w3.org/2000/svg" xmlns:xlink="http://www.w3.org/1999/xlink" x="0px" y="0px"
	 viewBox="0 0 35.262 35.262" style="enable-background:new 0 0 35.262 35.262;" xml:space="preserve">
<g>
	<g>
		<path style="fill:#010002;" d="M27.356,21.322c-1.191-1.193-3.326-1.047-5.086,0.229l-3.381-3.604L34.55,1.257L33.211,0
			L17.63,16.606L2.05,0L0.713,1.257l15.661,16.69l-3.382,3.604c-1.76-1.275-3.893-1.423-5.085-0.229l-6.379,6.379
			c-1.371,1.371-0.974,3.994,0.889,5.857c1.861,1.86,4.483,2.26,5.86,0.885l6.374-6.377c1.229-1.225,1.032-3.445-0.347-5.234
			l3.325-3.544l3.328,3.544c-1.379,1.789-1.575,4.011-0.349,5.234l6.375,6.377c1.373,1.375,3.997,0.977,5.858-0.885
			c1.864-1.863,2.261-4.486,0.888-5.857L27.356,21.322z"/>
	</g>
</g>
<g>
</g>
<g>
</g>
<g>
</g>
<g>
</g>
<g>
</g>
<g>
</g>
<g>
</g>
<g>
</g>
<g>
</g>
<g>
</g>
<g>
</g>
<g>
</g>
<g>
</g>
<g>
</g>
<g>
</g>
</svg>
