<?xml version="1.0" encoding="iso-8859-1"?>
<!-- Generator: Adobe Illustrator 16.0.0, SVG Export Plug-In . SVG Version: 6.00 Build 0)  -->
<!DOCTYPE svg PUBLIC "-//W3C//DTD SVG 1.1//EN" "http://www.w3.org/Graphics/SVG/1.1/DTD/svg11.dtd">
<svg version="1.1" id="Capa_1" xmlns="http://www.w3.org/2000/svg" xmlns:xlink="http://www.w3.org/1999/xlink" x="0px" y="0px"
	 width="303.314px" height="303.313px" viewBox="0 0 303.314 303.313" style="enable-background:new 0 0 303.314 303.313;"
	 xml:space="preserve">
<g>
	<g>
		<path d="M24.558,263.998c8.713-6.962,21.122-25.034,26.718-33.545c1.648-2.509,3.207-6.978,3.529-9.953l1.473-13.416
			l59.626-71.308v27.353l20.53-13.703c9.188-5.527,22.384-5.289,30.801-0.247l20.961,13.98v-26.444l58.839,70.368l1.468,13.416
			c0.325,2.976,1.879,7.444,3.534,9.953c5.596,8.5,18.001,26.583,26.715,33.545c2.341,1.874,7.089,2.275,9.887,1.188
			c4.561-1.768,10.964-5.5,14.209-13.01c1.183-2.747-0.025-7.023-1.985-9.282l-25.294-29.301c-1.96-2.274-5.819-4.966-8.617-6.012
			l-12.984-4.885l-65.771-78.658v-7.122c0-12.885-10.445-23.333-23.333-23.333h-25.626c-12.891,0-23.333,10.448-23.333,23.333v6.183
			l-66.557,79.592l-12.984,4.885c-2.803,1.052-6.663,3.743-8.623,6.008L2.448,242.889c-1.96,2.265-3.161,6.535-1.98,9.288
			c3.24,7.5,9.646,11.232,14.211,13.01C17.471,266.263,22.216,265.872,24.558,263.998z"/>
		<path d="M162.45,157.193c-5.753-3.448-15.076-3.448-20.832,0l-71.084,47.418c-5.751,3.447-9.448,11.613-7.279,17.955
			c7.083,20.627,28.657,56.473,88.778,57.082c60.328,0.604,81.834-36.125,88.836-57.062c2.133-6.362-1.594-14.528-7.348-17.971
			L162.45,157.193z"/>
		<circle cx="152.048" cy="56.286" r="32.629"/>
	</g>
</g>
<g>
</g>
<g>
</g>
<g>
</g>
<g>
</g>
<g>
</g>
<g>
</g>
<g>
</g>
<g>
</g>
<g>
</g>
<g>
</g>
<g>
</g>
<g>
</g>
<g>
</g>
<g>
</g>
<g>
</g>
</svg>
