<?xml version="1.0" encoding="iso-8859-1"?>
<!-- Generator: Adobe Illustrator 16.0.0, SVG Export Plug-In . SVG Version: 6.00 Build 0)  -->
<!DOCTYPE svg PUBLIC "-//W3C//DTD SVG 1.1//EN" "http://www.w3.org/Graphics/SVG/1.1/DTD/svg11.dtd">
<svg version="1.1" id="Capa_1" xmlns="http://www.w3.org/2000/svg" xmlns:xlink="http://www.w3.org/1999/xlink" x="0px" y="0px"
	 width="113.808px" height="113.808px" viewBox="0 0 113.808 113.808" style="enable-background:new 0 0 113.808 113.808;"
	 xml:space="preserve">
<g>
	<g>
		<path d="M111.619,61.908c-1.13-1.346-2.797-2.13-4.554-2.13H91.511c-2.726,0-5.094,1.848-5.764,4.488
			c-3.273,12.902-14.916,22.465-28.842,22.465c-13.926,0-25.566-9.561-28.839-22.465c-0.67-2.637-3.043-4.488-5.764-4.488H6.744
			c-1.756,0-3.426,0.779-4.558,2.123c-1.131,1.349-1.605,3.128-1.305,4.856c4.669,26.728,27.959,47.05,56.023,47.05
			c28.067,0,51.356-20.322,56.021-47.052C113.229,65.029,112.75,63.252,111.619,61.908z"/>
		<path d="M6.776,53.875h15.57c2.714,0,5.078-1.834,5.755-4.464c3.316-12.84,14.925-22.335,28.803-22.335
			c13.88,0,25.487,9.493,28.803,22.335c0.68,2.625,3.05,4.464,5.758,4.464h15.57c1.761,0,3.433-0.78,4.562-2.13
			c1.13-1.353,1.606-3.133,1.299-4.868C108.158,20.233,84.909,0,56.905,0c-28,0-51.251,20.235-55.986,46.876
			c-0.308,1.733,0.169,3.513,1.295,4.863C3.346,53.089,5.018,53.875,6.776,53.875z"/>
		<path d="M38.454,56.903c0,10.174,8.278,18.454,18.451,18.454c10.176,0,18.457-8.28,18.457-18.454
			c0-10.174-8.28-18.456-18.457-18.456C46.731,38.448,38.454,46.727,38.454,56.903z M66.2,56.903c0,5.128-4.167,9.294-9.295,9.294
			c-5.123,0-9.293-4.166-9.293-9.294c0-5.125,4.17-9.294,9.293-9.294C62.033,47.607,66.2,51.776,66.2,56.903z"/>
	</g>
</g>
<g>
</g>
<g>
</g>
<g>
</g>
<g>
</g>
<g>
</g>
<g>
</g>
<g>
</g>
<g>
</g>
<g>
</g>
<g>
</g>
<g>
</g>
<g>
</g>
<g>
</g>
<g>
</g>
<g>
</g>
</svg>
