<?xml version="1.0" encoding="iso-8859-1"?>
<!-- Generator: Adobe Illustrator 16.0.0, SVG Export Plug-In . SVG Version: 6.00 Build 0)  -->
<!DOCTYPE svg PUBLIC "-//W3C//DTD SVG 1.1//EN" "http://www.w3.org/Graphics/SVG/1.1/DTD/svg11.dtd">
<svg version="1.1" id="Capa_1" xmlns="http://www.w3.org/2000/svg" xmlns:xlink="http://www.w3.org/1999/xlink" x="0px" y="0px"
	 width="277.458px" height="277.458px" viewBox="0 0 277.458 277.458" style="enable-background:new 0 0 277.458 277.458;"
	 xml:space="preserve">
<g>
	<g>
		<path d="M200.051,0H64.708C53.21,0,43.853,9.357,43.853,20.855v235.713c0,11.5,9.357,20.857,20.855,20.857h10.314
			c0.091,0.005,0.177,0.032,0.264,0.032c0.065,0,0.128-0.032,0.189-0.032H189.97c0.065,0,0.131,0.032,0.188,0.032
			c0.093,0,0.177-0.032,0.266-0.032h9.619c11.499,0,20.856-9.357,20.856-20.857V60.007l10.361-9.449
			c0.182-0.163,0.359-0.345,0.527-0.532c2.637-2.961,2.371-7.498-0.588-10.135c-2.964-2.634-7.5-2.371-10.137,0.586l-0.159,0.182
			V20.855C220.908,9.357,211.551,0,200.051,0z M206.571,20.855v11.208c-2.18,1.341-4.709,1.911-7.276,1.538
			c-2.875-0.429-5.404-1.949-7.132-4.287c-1.722-2.332-2.445-5.199-2.016-8.067c0.41-2.763,1.862-5.189,4.051-6.909h5.862
			C203.645,14.337,206.571,17.261,206.571,20.855z M58.19,20.855c0-3.594,2.924-6.518,6.518-6.518h6.553
			c2.188,1.72,3.633,4.146,4.048,6.909c0.43,2.873-0.292,5.736-2.016,8.072c-1.727,2.333-4.259,3.857-7.126,4.282
			c-2.835,0.406-5.659-0.275-7.976-1.953V20.855z M58.19,126.898c0.128,0.004,0.247,0.04,0.378,0.04c0.07,0,0.138,0,0.215,0
			c6.06-0.219,11.005,4.555,11.182,10.547c0.173,5.99-4.56,11.003-10.552,11.18c-0.42,0.01-0.826,0.075-1.223,0.159V126.898z
			 M58.19,256.568v-9.577c2.317-1.675,5.141-2.371,7.976-1.95c2.873,0.429,5.4,1.95,7.126,4.284
			c1.725,2.333,2.446,5.199,2.016,8.064c-0.32,2.156-1.262,4.121-2.695,5.694h-7.906C61.114,263.087,58.19,260.162,58.19,256.568z
			 M206.571,256.568c0,3.594-2.927,6.52-6.521,6.52h-7.206c-1.438-1.577-2.375-3.542-2.697-5.688
			c-0.43-2.875,0.294-5.741,2.016-8.074c1.728-2.334,4.262-3.855,7.132-4.284c2.567-0.374,5.101,0.195,7.276,1.54V256.568z
			 M206.571,149.995c-0.43-0.163-0.883-0.284-1.35-0.359c-5.918-0.979-9.94-6.573-8.97-12.491c0.476-2.865,2.025-5.376,4.387-7.068
			c1.765-1.267,3.809-1.967,5.933-2.04V149.995z M206.571,73.086v40.65c-5.102,0.072-10.067,1.654-14.296,4.692
			c-5.47,3.93-9.082,9.75-10.174,16.393c-2.25,13.716,7.075,26.706,20.796,28.955c0.393,0.065,0.784,0.099,1.167,0.099
			c0.878,0,1.723-0.168,2.507-0.463v67.851c-3.039-0.71-6.208-0.873-9.4-0.401c-6.659,0.998-12.53,4.527-16.535,9.936
			c-4.004,5.419-5.666,12.064-4.667,18.72c0.178,1.232,0.542,2.408,0.896,3.575H88.589c0.355-1.167,0.712-2.343,0.898-3.575
			c0.994-6.664-0.663-13.311-4.669-18.72c-4.004-5.408-9.873-8.938-16.535-9.936c-3.426-0.514-6.845-0.299-10.093,0.551v-68.56
			c0.464,0.093,0.94,0.14,1.428,0.14c0.072,0,0.14,0,0.214,0c13.89-0.401,24.866-12.036,24.46-25.923
			c-0.406-13.89-11.885-24.916-25.93-24.465c-0.059,0-0.117,0.019-0.173,0.023V47.179c2.054,0.539,4.163,0.889,6.312,0.889
			c1.253,0,2.515-0.096,3.78-0.282c6.662-0.994,12.531-4.527,16.535-9.936c4.007-5.414,5.664-12.062,4.669-18.72
			c-0.248-1.65-0.653-3.251-1.199-4.789h88.884c-0.551,1.538-0.952,3.139-1.194,4.789c-0.999,6.662,0.662,13.311,4.667,18.72
			c4.004,5.409,9.875,8.942,16.535,9.936c1.265,0.191,2.525,0.282,3.78,0.282c1.909,0,3.78-0.292,5.619-0.719v9.425l-77.187,86.719
			L206.571,73.086z"/>
		<path d="M121.03,165.597c-9.248,0-9.248,14.337,0,14.337S130.278,165.597,121.03,165.597z"/>
	</g>
</g>
<g>
</g>
<g>
</g>
<g>
</g>
<g>
</g>
<g>
</g>
<g>
</g>
<g>
</g>
<g>
</g>
<g>
</g>
<g>
</g>
<g>
</g>
<g>
</g>
<g>
</g>
<g>
</g>
<g>
</g>
</svg>
