<?xml version="1.0" encoding="iso-8859-1"?>
<!-- Generator: Adobe Illustrator 18.1.1, SVG Export Plug-In . SVG Version: 6.00 Build 0)  -->
<svg version="1.1" id="Capa_1" xmlns="http://www.w3.org/2000/svg" xmlns:xlink="http://www.w3.org/1999/xlink" x="0px" y="0px"
	 viewBox="0 0 440 440" style="enable-background:new 0 0 440 440;" xml:space="preserve">
<g>
	<g id="Layer_1_85_">
		<g>
			<path d="M165.877,215.476c-1.715-3.751-10.725-24.116-17.08-51.345c-6.563-28.114-11.37-69.195,2.995-105.232
				c3.438-8.623,7.773-16.553,12.974-23.783c-17.712,0.269-34.225,5.158-49.334,14.661c-29.668,18.659-48.357,51.999-58.813,76.685
				c-10.854,25.63-15.224,46.934-15.666,49.166c-5.229,19.961-4.464,38.505,2.272,55.117c6.085,15.012,16.906,28.153,32.168,39.08
				c8.746,18.914,13.293,32.731,13.355,35.884L60.574,412.68c-1.695,6.439,2.164,13.06,8.604,14.754l46.191,12.166
				c6.439,1.697,13.06-2.161,14.756-8.604l28.142-106.85c0.73-1.082,4.271-5.674,17.7-16.109c4.32-3.358,8.559-6.459,11.632-8.659
				c18.666-1.991,34.556-8.101,47.247-18.167c1.316-1.043,2.583-2.143,3.826-3.268c-11.978-2.325-22.965-6.556-32.827-12.679
				C188.021,254.198,174.576,237.448,165.877,215.476z M135.092,317.296l-25.249,95.87l-22.834-6.016l25.251-95.867
				c1.071-4.069,1.259-9.916-3.572-23.945c6.462,2.469,13.28,4.655,20.37,6.521c7.063,1.86,14.045,3.313,20.859,4.347
				C138.894,307.966,136.176,313.178,135.092,317.296z"/>
			<path d="M401.643,363.635l-40.205-102.921c-0.049-1.302,0.109-7.101,4.812-23.444c1.514-5.259,3.112-10.259,4.299-13.849
				c13.912-12.604,23.151-26.902,27.476-42.511c4.789-17.276,3.421-35.783-4.062-55.013c-0.692-2.168-7.478-22.83-21.199-47.046
				c-13.217-23.324-35.604-54.304-67.212-69.439c-25.263-12.097-52.65-12.535-81.399-1.304
				c-28.75,11.231-48.587,30.115-58.96,56.134c-12.979,32.553-8.442,70.506-2.349,96.611c6.327,27.106,15.346,46.895,16.306,48.958
				c7.531,19.21,19.074,33.745,34.304,43.2c13.763,8.545,30.247,12.791,49.02,12.63c18.209,10.131,30.021,18.617,31.929,21.129
				l40.25,103.034c2.424,6.204,9.442,9.279,15.646,6.858l44.49-17.383C400.991,376.855,404.066,369.839,401.643,363.635z
				 M287.734,134.428c-12.215,0-22.116-9.903-22.116-22.116c0-12.215,9.901-22.115,22.116-22.115c12.213,0,22.115,9.9,22.115,22.115
				C309.85,124.524,299.947,134.428,287.734,134.428z M352.755,369.766l-36.071-92.343c-1.529-3.918-4.825-8.753-16.995-17.245
				c6.679-1.811,13.474-4.063,20.304-6.727c6.806-2.662,13.3-5.598,19.415-8.779c-3.156,14.381-2.282,20.196-0.732,24.162
				l36.074,92.34L352.755,369.766z"/>
		</g>
	</g>
</g>
<g>
</g>
<g>
</g>
<g>
</g>
<g>
</g>
<g>
</g>
<g>
</g>
<g>
</g>
<g>
</g>
<g>
</g>
<g>
</g>
<g>
</g>
<g>
</g>
<g>
</g>
<g>
</g>
<g>
</g>
</svg>
