<?xml version="1.0" encoding="iso-8859-1"?>
<!-- Generator: Adobe Illustrator 18.1.1, SVG Export Plug-In . SVG Version: 6.00 Build 0)  -->
<svg version="1.1" id="Capa_1" xmlns="http://www.w3.org/2000/svg" xmlns:xlink="http://www.w3.org/1999/xlink" x="0px" y="0px"
	 viewBox="0 0 461.231 461.231" style="enable-background:new 0 0 461.231 461.231;" xml:space="preserve">
<g>
	<g id="Layer_1_95_">
		<path d="M414.969,48.625c-33.102-21.803-61.998-25.785-88.346-12.178c-22.352,11.549-40.119,33.934-59.92,63.994
			c-18.092,27.465-27.111,58.662-25.402,87.844c0.949,16.18,5.119,30.717,12.131,42.924c-2.314,7.205-4.629,14.412-6.947,21.619
			c-3.158,9.828-6.316,19.66-9.475,29.49l-5.793,18.02c-0.172,0.541-0.295,0.841-0.602,1.288c-0.309-0.447-0.43-0.747-0.602-1.288
			l-5.793-18.02c-3.158-9.83-6.316-19.662-9.475-29.49c-2.318-7.207-4.633-14.414-6.947-21.619
			c7.012-12.207,11.182-26.744,12.131-42.924c1.709-29.182-7.311-60.379-25.402-87.844c-19.801-30.061-37.568-52.445-59.92-63.994
			c-26.348-13.607-55.244-9.625-88.346,12.178C13.159,70.43-1.909,95.408,0.193,124.986c1.783,25.096,15.336,50.258,35.139,80.316
			c18.092,27.467,43.191,48.07,70.678,58.021c15.24,5.516,30.244,7.424,44.225,5.801c0.977,0.85,1.953,1.697,2.924,2.547
			c7.457,6.498,14.908,12.992,22.365,19.488c7.23,6.301,14.465,12.604,21.695,18.904c2.203,1.92,4.406,3.842,6.611,5.762
			c0.518,0.451,1.035,0.9,1.553,1.352l0.248,0.219l6.33,10.469l-45.537,64.039c-0.652,0.994-1.299,1.992-1.943,2.992
			c-0.961,0.342-1.891,0.777-2.771,1.297c-1.887,1.107-3.537,2.604-4.832,4.367c-2.164,2.955-3.275,6.602-3.119,10.26
			c0.15,3.516,1.455,6.949,3.697,9.662c1.463,1.771,3.289,3.018,5.178,4.262l6.189,4.076c1.836,1.209,3.635,2.402,5.758,3.086
			c6.941,2.232,14.748-0.592,18.658-6.746c1.178-1.854,1.924-3.951,2.316-6.117c0.229-1.275,0.213-3.559,0.213-3.559
			s0.432-0.717,0.697-1.115c0.311-0.459,0.617-0.922,0.924-1.385c2.752-4.139,5.41-8.336,8.012-12.57l25.215-41.7l25.215,41.7
			c2.602,4.234,5.26,8.432,8.012,12.57c0.307,0.463,0.613,0.926,0.924,1.385c0.266,0.398,0.697,1.115,0.697,1.115
			s-0.016,2.283,0.213,3.559c0.393,2.166,1.139,4.264,2.316,6.117c3.91,6.154,11.717,8.979,18.658,6.746
			c2.123-0.684,3.922-1.877,5.758-3.086l6.189-4.076c1.889-1.244,3.715-2.49,5.178-4.262c2.242-2.713,3.547-6.146,3.697-9.662
			c0.156-3.658-0.955-7.305-3.119-10.26c-1.295-1.764-2.945-3.26-4.832-4.367c-0.881-0.52-1.811-0.955-2.771-1.297
			c-0.645-1-1.291-1.998-1.943-2.992l-45.539-64.039l6.332-10.469l0.248-0.219c0.518-0.451,1.035-0.9,1.553-1.352
			c2.205-1.92,4.408-3.842,6.611-5.762c7.23-6.301,14.465-12.604,21.695-18.904c7.457-6.496,14.908-12.99,22.365-19.488
			c0.971-0.85,1.947-1.697,2.924-2.547c13.98,1.623,28.984-0.285,44.225-5.801c27.486-9.951,52.586-30.555,70.678-58.021
			c19.803-30.059,33.355-55.221,35.139-80.316C463.138,95.408,448.07,70.429,414.969,48.625z M410.504,66.336
			c10.893,7.762,19.035,15.73,24.576,24.115l-1.824,2.771l-28.219-18.59L410.504,66.336z M265.963,202.478l18.588-28.217
			l28.217,18.586l-18.586,28.219L265.963,202.478z M287.566,231.111l-5.352,8.123c-7.428-6.098-13.145-13.924-17.141-22.938
			L287.566,231.111z M291.166,164.219l18.588-28.221l28.219,18.588l-18.588,28.219L291.166,164.219z M316.371,125.955l18.586-28.219
			l28.219,18.588l-18.588,28.219L316.371,125.955z M348.015,161.201l28.219,18.588l-18.588,28.219l-28.219-18.588L348.015,161.201z
			 M354.631,151.158l18.588-28.219l28.217,18.59l-18.586,28.217L354.631,151.158z M379.834,112.894l18.588-28.219l28.219,18.59
			l-18.588,28.217L379.834,112.894z M368.601,46.66c9.891,1.781,20.426,6.117,31.859,13.061l-5.467,8.297L366.776,49.43
			L368.601,46.66z M360.162,59.474l28.217,18.588l-18.586,28.219l-28.221-18.588L360.162,59.474z M334.49,51.674
			c2.785-1.439,5.609-2.609,8.473-3.527l7.154,4.713l-18.588,28.217l-18.924-12.466C319.549,61.519,326.822,55.635,334.49,51.674z
			 M304.441,77.636l20.471,13.484l-18.588,28.219l-21.979-14.479C290.756,95.312,297.428,85.965,304.441,77.636z M277.812,114.957
			l21.896,14.426l-18.586,28.219l-17.379-11.447C266.996,135.66,271.679,125.136,277.812,114.957z M260.58,158.47l13.928,9.174
			l-15.797,23.98C257.625,181.135,258.238,169.916,260.58,158.47z M202.519,191.625l-15.797-23.98l13.928-9.174
			C202.992,169.916,203.605,181.135,202.519,191.625z M88.011,122.939l18.588,28.219L78.38,169.746l-18.585-28.217L88.011,122.939z
			 M53.178,131.482L34.59,103.265l28.219-18.59l18.588,28.219L53.178,131.482z M98.054,116.324l28.219-18.588l18.586,28.219
			l-28.217,18.588L98.054,116.324z M113.215,161.201l18.588,28.219l-28.219,18.588l-18.588-28.219L113.215,161.201z
			 M123.258,154.586l28.219-18.588l18.588,28.221l-28.219,18.586L123.258,154.586z M176.679,174.261l18.588,28.217l-28.219,18.588
			l-18.586-28.219L176.679,174.261z M196.156,216.297c-3.996,9.014-9.713,16.84-17.141,22.938l-5.352-8.123L196.156,216.297z
			 M197.486,146.154l-17.379,11.447l-18.586-28.219l21.896-14.426C189.551,125.136,194.234,135.66,197.486,146.154z
			 M176.885,104.861l-21.979,14.479l-18.588-28.219l20.471-13.484C163.803,85.965,170.474,95.312,176.885,104.861z M118.267,48.146
			c2.863,0.918,5.688,2.088,8.473,3.527c7.668,3.961,14.941,9.846,21.885,16.938l-18.924,12.465l-18.588-28.217L118.267,48.146z
			 M119.658,87.693l-28.221,18.588L72.851,78.062l28.217-18.588L119.658,87.693z M92.629,46.66l1.824,2.77L66.236,68.017
			l-5.467-8.297C72.203,52.777,82.738,48.441,92.629,46.66z M50.726,66.336l5.467,8.297l-28.219,18.59l-1.824-2.771
			C31.691,82.066,39.834,74.097,50.726,66.336z M17.289,123.769c-0.223-3.127-0.184-6.182,0.104-9.178l7.154-4.711l18.586,28.217
			l-18.924,12.467C20.435,141.385,17.9,132.379,17.289,123.769z M29.279,161.629l20.471-13.484l18.588,28.217l-21.98,14.479
			C40.113,181.181,34.162,171.359,29.279,161.629z M53.054,200.83l21.898-14.426l18.588,28.219L76.163,226.07
			C67.804,218.939,59.984,210.482,53.054,200.83z M86.228,233.842l13.928-9.174l15.795,23.979
			C105.886,245.504,95.818,240.51,86.228,233.842z M128.785,246.269l-18.586-28.219l28.219-18.588l18.588,28.219L128.785,246.269z
			 M141.131,252.541l22.492-14.814l5.352,8.123C160.437,250.267,150.992,252.429,141.131,252.541z M197.789,287.775
			c-7.344-6.402-14.689-12.803-22.033-19.203c-1.516-1.318-3.027-2.639-4.543-3.957l24.16-15.914
			c1.904,5.926,3.809,11.854,5.713,17.781c2.98,9.273,5.961,18.551,8.941,27.826c0.615,1.912,1.229,3.822,1.844,5.736
			C207.178,295.953,202.484,291.865,197.789,287.775z M285.474,268.572c-7.344,6.4-14.689,12.801-22.033,19.203
			c-4.695,4.09-9.389,8.178-14.082,12.27c0.615-1.914,1.229-3.824,1.844-5.736c2.98-9.275,5.961-18.553,8.941-27.826
			c1.904-5.928,3.809-11.855,5.713-17.781l24.16,15.913C288.502,265.933,286.99,267.254,285.474,268.572z M292.256,245.849
			l5.352-8.123L320.1,252.54C310.238,252.429,300.793,250.267,292.256,245.849z M304.224,227.681l18.588-28.219l28.219,18.588
			l-18.586,28.219L304.224,227.681z M345.279,248.646l15.795-23.979l13.928,9.174C365.412,240.51,355.344,245.504,345.279,248.646z
			 M385.066,226.07l-17.377-11.447l18.588-28.219l21.898,14.426C401.246,210.482,393.426,218.939,385.066,226.07z M414.873,190.84
			l-21.98-14.479l18.588-28.217l20.471,13.484C427.068,171.359,421.117,181.181,414.873,190.84z M443.941,123.769
			c-0.611,8.609-3.146,17.615-6.92,26.795l-18.924-12.467l18.586-28.217l7.154,4.711
			C444.125,117.588,444.164,120.642,443.941,123.769z"/>
	</g>
</g>
<g>
</g>
<g>
</g>
<g>
</g>
<g>
</g>
<g>
</g>
<g>
</g>
<g>
</g>
<g>
</g>
<g>
</g>
<g>
</g>
<g>
</g>
<g>
</g>
<g>
</g>
<g>
</g>
<g>
</g>
</svg>
