<?xml version="1.0" encoding="iso-8859-1"?>
<!-- Generator: Adobe Illustrator 18.1.1, SVG Export Plug-In . SVG Version: 6.00 Build 0)  -->
<svg version="1.1" id="Capa_1" xmlns="http://www.w3.org/2000/svg" xmlns:xlink="http://www.w3.org/1999/xlink" x="0px" y="0px"
	 viewBox="0 0 16.925 16.925" style="enable-background:new 0 0 16.925 16.925;" xml:space="preserve">
<g>
	<path style="fill:#030104;" d="M16.922,7.847c-0.053-0.615-0.314-1.282-0.685-1.958c-0.401-0.73-2.364-3.318-2.733-3.806
		c-0.55-0.726-0.912-1.289-0.813-1.564c0.147-0.409-1.48-0.226-3.258,0.085C8.746,0.725,7.456,0.381,7.701,1.295
		C7.944,2.209,5.192,1.48,5.192,1.48s-3.104,0.937-2.541,1.5C2.996,3.326-0.028,6.999,0,7.846c0.077,2.312,1.64,5.549,1.696,4.861
		s1.699,1.649,2.535,2.467c0.955,0.933,5.78,0.734,5.694,1.306c-0.086,0.572,3.418-0.49,2.767-1.306
		c-0.735-0.922,2.5-2.967,1.996-3.599S17.027,9.094,16.922,7.847z M2.966,10.45c-0.267,0-0.484-0.217-0.484-0.484
		s0.217-0.484,0.484-0.484c0.268,0,0.484,0.218,0.484,0.484C3.45,10.234,3.234,10.45,2.966,10.45z M6.881,9.557
		c-0.445,0-0.807-0.36-0.807-0.807c0-0.445,0.362-0.806,0.807-0.806S7.687,8.305,7.687,8.75C7.687,9.196,7.326,9.557,6.881,9.557z
		 M5.854,6.313C5.321,6.951,4.56,7.192,4.153,6.853c-0.407-0.34-0.305-1.132,0.227-1.77c0.533-0.638,1.295-0.881,1.702-0.541
		S6.387,5.675,5.854,6.313z M9.66,14.504c-0.784,0-1.42-0.636-1.42-1.42c0-0.783,0.636-1.42,1.42-1.42s1.42,0.637,1.42,1.42
		C11.08,13.868,10.445,14.504,9.66,14.504z M13.72,7.546c0.326,0,0.591,0.265,0.591,0.591c0,0.327-0.265,0.592-0.591,0.592
		s-0.592-0.266-0.592-0.592C13.128,7.811,13.394,7.546,13.72,7.546z M10.312,5.417c0-0.599,0.635-1.085,1.42-1.085
		c0.782,0,1.419,0.486,1.419,1.085s-0.637,1.084-1.419,1.084C10.947,6.502,10.312,6.016,10.312,5.417z"/>
</g>
<g>
</g>
<g>
</g>
<g>
</g>
<g>
</g>
<g>
</g>
<g>
</g>
<g>
</g>
<g>
</g>
<g>
</g>
<g>
</g>
<g>
</g>
<g>
</g>
<g>
</g>
<g>
</g>
<g>
</g>
</svg>
