<?xml version="1.0" encoding="iso-8859-1"?>
<!-- Generator: Adobe Illustrator 16.0.0, SVG Export Plug-In . SVG Version: 6.00 Build 0)  -->
<!DOCTYPE svg PUBLIC "-//W3C//DTD SVG 1.1//EN" "http://www.w3.org/Graphics/SVG/1.1/DTD/svg11.dtd">
<svg version="1.1" id="Capa_1" xmlns="http://www.w3.org/2000/svg" xmlns:xlink="http://www.w3.org/1999/xlink" x="0px" y="0px"
	 width="424.072px" height="424.071px" viewBox="0 0 424.072 424.071" style="enable-background:new 0 0 424.072 424.071;"
	 xml:space="preserve">
<g>
	<g>
		<path d="M422.571,255.621c-1.047-1.025-2.492-1.541-3.952-1.407L4.546,292.011c-1.458,0.133-2.784,0.898-3.629,2.094
			c-0.845,1.196-1.124,2.701-0.763,4.12c6.68,26.237,76.168,59.633,99.12,57.479c10.728-1.007,17.051-4.088,24.373-7.644
			c10.888-5.283,22.146-10.748,44.592-10.748c22.448,0,33.701,5.461,44.585,10.744c9.231,4.481,16.523,8.021,32.719,8.021
			c16.622,0,28.122-5.788,32.713-8.017c10.888-5.283,22.145-10.748,44.595-10.748c1.442,0,2.854,0.025,4.316,0.077
			c0.615,0.02,1.237-0.071,1.823-0.275c57.533-20.079,93.073-49.077,95.069-77.568C424.163,258.081,423.619,256.646,422.571,255.621
			z"/>
		<path d="M191.417,96.661c6.619,39.428,12.783,96.753,4.559,145.951c-0.256,1.527,0.212,3.089,1.267,4.226
			c0.95,1.024,2.281,1.599,3.665,1.599c0.15,0,0.303-0.007,0.454-0.021l149.478-13.645c1.469-0.134,2.803-0.908,3.646-2.116
			c0.845-1.208,1.111-2.728,0.731-4.151c-2.923-10.966-11.914-40.173-32.207-74.451c-22.701-38.342-65.269-92.271-139.136-131.445
			c-1.758-0.931-3.896-0.734-5.452,0.502c-1.557,1.236-2.233,3.276-1.724,5.197C179.999,40.759,186.301,66.196,191.417,96.661z"/>
		<path d="M67.849,260.582c0.15,0,0.303-0.007,0.454-0.021l92.738-8.465c2.235-0.204,4.062-1.873,4.465-4.081
			c7.249-39.682-0.897-108.148-4.737-135.744c-0.246-1.779-1.429-3.289-3.097-3.955c-1.669-0.666-3.566-0.387-4.97,0.733
			c-68.35,54.448-85.991,125.226-89.77,145.622c-0.285,1.539,0.167,3.123,1.222,4.28C65.106,259.995,66.45,260.582,67.849,260.582z"
			/>
		<path d="M322.85,356.075c-22.455,0-34.218,5.711-44.595,10.747c-9.227,4.479-16.514,8.017-32.713,8.017
			c-16.2,0-23.483-3.537-32.712-8.017c-10.377-5.036-22.139-10.747-44.592-10.747c-22.454,0-34.213,5.711-44.592,10.748
			c-9.225,4.479-16.51,8.016-32.707,8.016c-16.199,0-23.486-3.537-32.713-8.017c-10.377-5.036-22.141-10.747-44.592-10.747v27.208
			c16.199,0,23.486,3.536,32.711,8.015c10.377,5.039,22.139,10.748,44.594,10.748c22.451,0,34.211-5.709,44.59-10.748
			c9.225-4.479,16.512-8.015,32.709-8.015c16.199,0,23.486,3.536,32.71,8.015c10.38,5.039,22.142,10.748,44.594,10.748
			c22.453,0,34.215-5.709,44.594-10.748c9.226-4.479,16.512-8.015,32.714-8.015c16.198,0,23.484,3.536,32.715,8.015
			c10.377,5.039,22.138,10.748,44.594,10.748v-27.207c-16.199,0-23.488-3.537-32.713-8.017
			C357.067,361.786,345.302,356.075,322.85,356.075z"/>
	</g>
</g>
<g>
</g>
<g>
</g>
<g>
</g>
<g>
</g>
<g>
</g>
<g>
</g>
<g>
</g>
<g>
</g>
<g>
</g>
<g>
</g>
<g>
</g>
<g>
</g>
<g>
</g>
<g>
</g>
<g>
</g>
</svg>
