<?xml version="1.0" encoding="iso-8859-1"?>
<!-- Generator: Adobe Illustrator 16.0.0, SVG Export Plug-In . SVG Version: 6.00 Build 0)  -->
<!DOCTYPE svg PUBLIC "-//W3C//DTD SVG 1.1//EN" "http://www.w3.org/Graphics/SVG/1.1/DTD/svg11.dtd">
<svg version="1.1" id="Capa_1" xmlns="http://www.w3.org/2000/svg" xmlns:xlink="http://www.w3.org/1999/xlink" x="0px" y="0px"
	 width="979.701px" height="979.702px" viewBox="0 0 979.701 979.702" style="enable-background:new 0 0 979.701 979.702;"
	 xml:space="preserve">
<g>
	<g>
		<path d="M964.8,149.901h-950c-0.1,0-0.2,0-0.3,0c-0.3,0-0.6,0-0.8,0c-0.2,0-0.5,0-0.7,0.1c-0.2,0-0.5,0.1-0.7,0.1
			c-0.3,0-0.5,0.1-0.8,0.2c-0.2,0-0.4,0.1-0.6,0.2c-0.3,0.1-0.5,0.1-0.8,0.2c-0.2,0.1-0.4,0.1-0.6,0.2c-0.2,0.1-0.5,0.2-0.7,0.3
			s-0.4,0.2-0.6,0.3c-0.2,0.1-0.4,0.2-0.6,0.3c-0.2,0.1-0.5,0.3-0.7,0.4c-0.2,0.1-0.4,0.2-0.5,0.4c-0.2,0.2-0.4,0.3-0.7,0.5
			c-0.2,0.1-0.3,0.3-0.5,0.4c-0.2,0.2-0.4,0.4-0.6,0.5c-0.2,0.2-0.3,0.3-0.5,0.5c-0.2,0.2-0.3,0.4-0.5,0.5c-0.2,0.2-0.3,0.4-0.5,0.6
			c-0.1,0.1-0.2,0.2-0.2,0.3c-0.1,0.1-0.1,0.2-0.2,0.2c-0.2,0.2-0.3,0.5-0.5,0.7c-0.1,0.2-0.2,0.4-0.3,0.5c-0.1,0.2-0.3,0.5-0.4,0.7
			c-0.1,0.2-0.2,0.4-0.3,0.6c-0.1,0.2-0.2,0.5-0.3,0.7c-0.1,0.2-0.2,0.4-0.2,0.7c-0.1,0.2-0.1,0.5-0.2,0.7c-0.1,0.2-0.1,0.5-0.2,0.7
			c0,0.2-0.1,0.4-0.1,0.7c0,0.3-0.1,0.5-0.1,0.8c0,0.2,0,0.4-0.1,0.6c0,0.3,0,0.6,0,0.9c0,0.1,0,0.2,0,0.3v555.5
			c0,5.8,3.4,11.2,8.7,13.6c5.3,2.5,11.6,1.601,16-2.199l88.7-75.301h35.4c0.7-5,1.7-10,2.9-14.899c0.9-3.8,1.9-7.5,3.1-11.2
			c0.4-1.3,0.8-2.6,1.2-3.8h-33.1c-0.1-13.3-0.3-26.4-0.5-39.3l16.4-16.4l28.8,28.8c4.8-9.1,10.5-17.6,16.8-25.7l-24.6-24.3
			l35.4-35.399l25.1,25.1c8.4-6,17.3-11.3,26.7-15.7l-30.6-30.6l37.7-37.7l37.7,37.7l-21.5,21.5c11.5-3.601,23.5-6,35.9-7.101
			c4.699-0.399,9.5-0.699,14.3-0.699c0.6,0,1.2,0,1.8,0c9.4,0,18.7,0.8,27.8,2.199L334.2,492.901l37.699-37.7l37.7,37.7l-24.8,25
			c10,3.8,19.5,8.399,28.5,13.899l17.7-17.699l37.7,37.699l-14.4,14.4c6.7,7.6,12.7,15.7,18,24.4l17.6-17.601l37.7,37.7l-15.7,15.7
			H489c2,5.9,3.6,11.8,5,18c0.2,0.9,0.399,1.8,0.6,2.7c0.601,3.1,1.2,6.2,1.601,9.3h370.1l88.7,75.3c2.8,2.3,6.2,3.6,9.7,3.6
			c2.1,0,4.3-0.5,6.3-1.399c5.3-2.5,8.7-7.8,8.7-13.601V164.901C979.8,156.601,973.1,149.901,964.8,149.901z M856.899,626.5h-35.3
			l-18-18l37.7-37.7l16.1,16.101C857.2,599.8,857,613,856.899,626.5z M570.2,610.8l37.699-37.699l37.7,37.699l-15.7,15.7h-44.1
			L570.2,610.8z M214.7,179.901l18.3,18.3l-37.7,37.7l-37.7-37.7l18.3-18.3H214.7z M332.6,179.901l18.3,18.3l-37.699,37.7
			l-37.7-37.7l18.3-18.3H332.6L332.6,179.901z M450.5,179.901l18.3,18.3l-37.7,37.7l-37.7-37.7l18.301-18.3H450.5L450.5,179.901z
			 M568.399,179.901l18.301,18.3l-37.7,37.7l-37.7-37.7l18.3-18.3H568.399L568.399,179.901z M686.3,179.901l18.3,18.3l-37.8,37.6
			l-37.7-37.7l18.3-18.3L686.3,179.901L686.3,179.901z M804.2,179.901l18.3,18.3l-37.7,37.6l-37.7-37.7l18.3-18.3L804.2,179.901
			L804.2,179.901z M490,294.801l-37.7-37.7l37.7-37.7l37.7,37.7L490,294.801z M548.899,278.301l37.7,37.7l-37.7,37.7L511.2,316
			L548.899,278.301z M872.899,383.5l-29.199,29.2L806,375l37.7-37.7l31.399,31.4C874.399,373.601,873.6,378.5,872.899,383.5z
			 M725.8,412.701L688.1,375l37.7-37.7l37.7,37.7L725.8,412.701z M784.8,396.201l37.7,37.7l-37.7,37.8L747.1,434L784.8,396.201z
			 M784.8,353.801l-37.7-37.7l37.7-37.7l37.7,37.7L784.8,353.801z M725.8,294.801l-37.7-37.7l37.7-37.7l37.7,37.7L725.8,294.801z
			 M704.6,316l-37.8,37.8l-37.7-37.7l37.7-37.7L704.6,316z M607.899,294.801l-37.699-37.7l37.699-37.7l37.7,37.7L607.899,294.801z
			 M607.899,337.201l37.7,37.7l-37.7,37.8L570.2,375L607.899,337.201z M666.8,396.201l37.7,37.7l-37.7,37.8L629.1,434L666.8,396.201
			z M688.1,492.901l37.7-37.7l37.7,37.7l-37.7,37.7L688.1,492.901z M704.6,551.8l-37.8,37.801l-37.7-37.7l37.7-37.7L704.6,551.8z
			 M784.8,514.101l35.4,35.399l-37.7,37.7l-35.4-35.4L784.8,514.101z M806,492.901l37.7-37.7l19.199,19.2
			c-0.899,11.399-1.699,23-2.399,34.8l-19.2,19.2L806,492.901z M864.899,316l26.101-26.1c-3.4,13.5-6.601,27.8-9.601,42.7
			L864.899,316z M843.7,294.801l-37.7-37.7l37.7-37.7l37.699,37.7L843.7,294.801z M409.8,257.101l-37.7,37.7l-37.7-37.7l37.7-37.7
			L409.8,257.101z M291.9,257.101l-37.7,37.7l-37.7-37.7l37.7-37.7L291.9,257.101z M88.4,289.401L115,316l-16.9,16.9
			C95.2,317.701,91.9,303.101,88.4,289.401z M98.5,257.101l37.7-37.7l37.7,37.7l-37.7,37.7L98.5,257.101z M115.1,198.101l-37.7,37.7
			l-8.4-8.4c-8.2-20.9-16.2-36.3-23.2-47.5h51L115.1,198.101z M106.7,383.101c-0.7-4.801-1.4-9.5-2.1-14.101l31.7-31.7L174,375
			l-37.7,37.7L106.7,383.101z M157.5,316l37.7-37.7l37.7,37.7l-37.7,37.7L157.5,316z M254.2,337.201l37.7,37.7l-37.7,37.8L216.5,375
			L254.2,337.201z M275.4,316l37.7-37.7l37.7,37.7l-37.7,37.7L275.4,316z M372.1,337.201l37.7,37.7l-37.7,37.8l-37.7-37.7
			L372.1,337.201z M393.3,316l37.7-37.7l37.7,37.7l-37.7,37.7L393.3,316z M490,337.201l37.7,37.7l-37.7,37.8L452.3,375L490,337.201z
			 M548.899,396.201l37.7,37.7l-37.7,37.8L511.2,434L548.899,396.201z M607.899,455.101l37.7,37.699l-37.7,37.7L570.2,492.8
			L607.899,455.101z M688.1,610.8l37.7-37.699l35.4,35.399l-18,18h-39.5L688.1,610.8z M910.399,228.101l-7.8,7.8l-37.7-37.7
			l18.301-18.3h49.1h1.5c-2.6,4.2-5.4,9.1-8.3,14.6C920.7,203.701,915.6,214.801,910.399,228.101z M29.8,687.901v-475.1
			c5.4,10.9,11.3,24.7,17.3,42.2c37,108.5,45.3,264.9,45.6,379.5L29.8,687.901z M138.6,528.3l-19.6-19.6c-0.7-11.6-1.5-22.9-2.3-34
			l19.6-19.6L174,492.8L138.6,528.3z M195.2,471.701L157.5,434l37.7-37.7l37.7,37.7L195.2,471.701z M313.1,471.701L275.4,434
			l37.7-37.7l37.7,37.7L313.1,471.701z M393.3,433.901l37.7-37.7l37.7,37.7l-37.7,37.8L393.3,433.901z M452.2,492.901l37.699-37.7
			l37.7,37.7l-37.7,37.7L452.2,492.901z M511.2,551.8l37.699-37.699l37.7,37.699l-37.7,37.7L511.2,551.8z M949.8,687.901l-62.9-53.4
			c0.301-111.8,8.301-264.8,43.601-373.3c6.6-20.4,13.3-36.2,19.3-48.3V687.901L949.8,687.901z"/>
		<path d="M465.5,647.101c-1.7-7.101-4-14-6.7-20.601c-2.1-5.2-4.5-10.2-7.2-15c-0.5-1-1.1-1.899-1.6-2.899
			c-4.601-7.9-9.8-15.301-15.7-22.101c-10.8-12.5-23.6-23.2-38-31.6c-1.3-0.7-2.5-1.4-3.8-2.101c-9.5-5.1-19.601-9.3-30.2-12.199
			c-8.9-2.5-18.2-4.2-27.7-5c-4-0.301-8-0.5-12.1-0.5c-11.8,0-23.2,1.399-34.2,4c-6.7,1.6-13.2,3.6-19.6,6.1
			c-9.9,3.9-19.2,8.8-27.9,14.6c-14,9.301-26.3,21-36.4,34.5c-6.2,8.2-11.5,17.101-15.8,26.601c-0.9,1.899-1.7,3.8-2.5,5.7
			c-2.1,5.1-3.9,10.3-5.4,15.6c-1.3,4.7-2.4,9.5-3.3,14.4c-1.5,8.399-2.3,17-2.3,25.899c0,81.4,66,147.3,147.3,147.3
			c81.4-0.1,147.4-66.1,147.4-147.5c0-8.8-0.8-17.5-2.3-25.899C466.899,653.3,466.3,650.201,465.5,647.101z M439.8,682.3
			c0,24.301-7.3,47.4-20.9,66.9l-36.6,5.4c-1.9,0.3-4.1,2-4.9,3.8l-14.5,34.1c-12.8,4.7-26.399,7.101-40.5,7.101
			c-14.1,0-27.7-2.5-40.5-7.101l-14.5-34.1c-0.8-1.8-2.9-3.5-4.9-3.8l-36.6-5.4c-13.6-19.5-20.9-42.6-20.9-66.9c0-0.399,0-0.8,0-1.3
			l26.7-24.6l0.4-0.4c1.4-1.3,2.3-3.899,1.9-5.899l-1.4-7.2l-3.2-16.5l-1.8-8.9l-0.7-3.6c3.7-5.101,7.8-10,12.4-14.601
			c7-7,14.8-13,23.1-18c7.7-4.6,16-8.3,24.5-11l15.7,8.801l13.3,7.5l3.301,1.8c1.699,1,4.5,1,6.199,0L357.7,570.3
			c4.199,1.301,8.3,2.9,12.3,4.601c2.6,1.2,5.3,2.5,7.8,3.8c10,5.4,19.3,12.2,27.5,20.5c2.7,2.7,5.2,5.4,7.5,8.3
			c1.7,2,3.3,4.101,4.8,6.3l-0.8,4l-1.7,8.5L411.2,646l-0.801,4.101c-0.399,1.899,0.5,4.5,1.9,5.899l0.4,0.4l26.699,24.6
			C439.8,681.5,439.8,681.901,439.8,682.3z"/>
		<path d="M376.3,662.601l-8.4-6.101L352.2,645.101L326.6,626.5l-1.3-1c-1.5-1.1-4-1.1-5.6-0.1c0,0-0.101,0-0.101,0.1l-1.3,1
			l-6.2,4.5l-18,13.101L277,656.5l-8.4,6.101c-1.6,1.1-2.4,3.6-1.8,5.399l19.5,60c0.6,1.9,2.7,3.4,4.6,3.4H354
			c1.899,0,4-1.5,4.6-3.4l19.5-60C378.7,666.101,377.899,663.701,376.3,662.601z"/>
	</g>
</g>
<g>
</g>
<g>
</g>
<g>
</g>
<g>
</g>
<g>
</g>
<g>
</g>
<g>
</g>
<g>
</g>
<g>
</g>
<g>
</g>
<g>
</g>
<g>
</g>
<g>
</g>
<g>
</g>
<g>
</g>
</svg>
