<?xml version="1.0" encoding="iso-8859-1"?>
<!-- Generator: Adobe Illustrator 17.1.0, SVG Export Plug-In . SVG Version: 6.00 Build 0)  -->
<!DOCTYPE svg PUBLIC "-//W3C//DTD SVG 1.1//EN" "http://www.w3.org/Graphics/SVG/1.1/DTD/svg11.dtd">
<svg version="1.1" id="Capa_1" xmlns="http://www.w3.org/2000/svg" xmlns:xlink="http://www.w3.org/1999/xlink" x="0px" y="0px"
	 viewBox="0 0 175.212 175.212" style="enable-background:new 0 0 175.212 175.212;" xml:space="preserve">
<path d="M55.649,175.173c-0.602,0.014-1.204,0.03-1.802,0.03c-15.898,0-29.41-5.108-39.075-14.773
	C3.757,149.415-1.227,133.633,0.256,115.237c4.355,1.757,9.316,2.972,14.714,2.972c0.027,0,0.056,0,0.083,0
	c21.6-0.05,40.793-10.454,66.249-35.909c28.16-28.161,38.358-46.775,37.625-68.681c-0.173-5.174-1.327-9.621-2.994-13.415
	c1.819-0.127,3.625-0.196,5.413-0.196c15.898,0,29.41,5.108,39.075,14.773c10.74,10.74,15.766,26.003,14.636,43.81
	c-4.903-2.525-11.433-4.472-19.246-3.507c-16.2,2.004-33.042,9.392-62.584,38.933c-27.979,27.979-39.018,45.584-40.729,64.953
	C51.91,165.619,53.338,170.983,55.649,175.173z M14.971,108.209c0.02,0,0.039,0,0.059,0c15.775-0.037,31.879-5.659,59.201-32.98
	c29.613-29.613,35.233-45.401,34.702-61.275c-0.168-5.005-1.607-9.09-3.515-12.349C82.753,6.009,58.9,19.347,39.119,39.128
	C19.936,58.31,6.73,81.271,1.933,103.779c-0.083,0.389-0.141,0.769-0.219,1.156C5.557,106.802,10.073,108.209,14.971,108.209z
	 M157.037,65.01c-14.152,1.75-29.216,8.556-56.74,36.08c-26.106,26.105-36.361,42.032-37.839,58.762
	c-0.639,7.239,2.068,11.665,4.732,14.219c23.425-3.86,48.348-17.452,68.884-37.987c19.182-19.182,32.388-42.143,37.186-64.651
	c0.148-0.694,0.26-1.375,0.39-2.063C170.124,66.893,164.362,64.103,157.037,65.01z"/>
<g>
</g>
<g>
</g>
<g>
</g>
<g>
</g>
<g>
</g>
<g>
</g>
<g>
</g>
<g>
</g>
<g>
</g>
<g>
</g>
<g>
</g>
<g>
</g>
<g>
</g>
<g>
</g>
<g>
</g>
</svg>
