<?xml version="1.0" encoding="iso-8859-1"?>
<!-- Generator: Adobe Illustrator 16.0.0, SVG Export Plug-In . SVG Version: 6.00 Build 0)  -->
<!DOCTYPE svg PUBLIC "-//W3C//DTD SVG 1.1//EN" "http://www.w3.org/Graphics/SVG/1.1/DTD/svg11.dtd">
<svg version="1.1" id="Capa_1" xmlns="http://www.w3.org/2000/svg" xmlns:xlink="http://www.w3.org/1999/xlink" x="0px" y="0px"
	 width="980.4px" height="980.4px" viewBox="0 0 980.4 980.4" style="enable-background:new 0 0 980.4 980.4;" xml:space="preserve"
	>
<g>
	<path d="M65.9,717.5h848.7c6.1,0,11-4.899,11-11V178.8c0-6.1-4.9-11-11-11H65.9c-6.1,0-11,4.9-11,11v527.7
		C54.9,712.5,59.8,717.5,65.9,717.5z M828,286.5c0-8.3,6.7-15,15-15s15,6.7,15,15V309c0,8.3-6.7,15-15,15s-15-6.7-15-15V286.5z
		 M828,380.601c0-8.301,6.7-15,15-15s15,6.699,15,15v22.5c0,8.3-6.7,15-15,15s-15-6.7-15-15V380.601z M828,482.8c0-8.3,6.7-15,15-15
		s15,6.7,15,15v22.5c0,8.301-6.7,15-15,15s-15-6.699-15-15V482.8z M828,576.8c0-8.3,6.7-15,15-15s15,6.7,15,15v22.5
		c0,8.301-6.7,15-15,15s-15-6.699-15-15V576.8z M787.5,234.2H810c8.3,0,15,6.7,15,15s-6.7,15-15,15h-22.5c-8.3,0-15-6.7-15-15
		S779.2,234.2,787.5,234.2z M787.5,428.7H810c8.3,0,15,6.7,15,15s-6.7,15-15,15h-22.5c-8.3,0-15-6.7-15-15S779.2,428.7,787.5,428.7z
		 M787.5,623.3H810c8.3,0,15,6.7,15,15c0,8.301-6.7,15-15,15h-22.5c-8.3,0-15-6.699-15-15C772.5,630,779.2,623.3,787.5,623.3z
		 M706.101,234.2H741c8.3,0,15,6.7,15,15s-6.7,15-15,15h-34.899c-8.301,0-15-6.7-15-15S697.8,234.2,706.101,234.2z M706.101,428.7
		H741c8.3,0,15,6.7,15,15s-6.7,15-15,15h-34.899c-8.301,0-15-6.7-15-15S697.8,428.7,706.101,428.7z M706.101,623.3H741
		c8.3,0,15,6.7,15,15c0,8.301-6.7,15-15,15h-34.899c-8.301,0-15-6.699-15-15C691.101,630,697.8,623.3,706.101,623.3z M637.101,234.2
		h22.5c8.3,0,15,6.7,15,15s-6.7,15-15,15h-22.5c-8.301,0-15-6.7-15-15S628.8,234.2,637.101,234.2z M637.101,428.7h22.5
		c8.3,0,15,6.7,15,15s-6.7,15-15,15h-22.5c-8.301,0-15-6.7-15-15S628.8,428.7,637.101,428.7z M637.101,623.3h22.5
		c8.3,0,15,6.7,15,15c0,8.301-6.7,15-15,15h-22.5c-8.301,0-15-6.699-15-15C622.101,630,628.8,623.3,637.101,623.3z M474,378.3
		c0-9.1,7.4-16.5,16.5-16.5c9.101,0,16.5,7.4,16.5,16.5V403c0,9.101-7.399,16.5-16.5,16.5c-9.1,0-16.5-7.399-16.5-16.5V378.3z
		 M474,482.8c0-9.1,7.4-16.5,16.5-16.5c9.101,0,16.5,7.4,16.5,16.5v24.7c0,9.101-7.399,16.5-16.5,16.5c-9.1,0-16.5-7.399-16.5-16.5
		V482.8z M356.9,289.8c0-8.3,6.7-15,15-15s15,6.7,15,15v22.5c0,8.3-6.7,15-15,15s-15-6.7-15-15V289.8z M356.9,370.2
		c0-8.3,6.7-15,15-15s15,6.7,15,15v43.5c0,8.3-6.7,15-15,15s-15-6.7-15-15V370.2z M356.9,471.601c0-8.301,6.7-15,15-15
		s15,6.699,15,15V515c0,8.3-6.7,15-15,15s-15-6.7-15-15V471.601z M356.9,572.9c0-8.3,6.7-15,15-15s15,6.7,15,15v22.5
		c0,8.3-6.7,15-15,15s-15-6.7-15-15V572.9z M318.601,234.2h22.5c8.3,0,15,6.7,15,15s-6.7,15-15,15h-22.5c-8.301,0-15-6.7-15-15
		S310.4,234.2,318.601,234.2z M318.601,621.101h22.5c8.3,0,15,6.699,15,15c0,8.3-6.7,15-15,15h-22.5c-8.301,0-15-6.7-15-15
		C303.601,627.8,310.4,621.101,318.601,621.101z M237.2,234.2h34.9c8.3,0,15,6.7,15,15s-6.7,15-15,15h-34.9c-8.3,0-15-6.7-15-15
		S228.9,234.2,237.2,234.2z M237.2,621.101h34.9c8.3,0,15,6.699,15,15c0,8.3-6.7,15-15,15h-34.9c-8.3,0-15-6.7-15-15
		C222.2,627.8,228.9,621.101,237.2,621.101z M168.2,234.2h22.5c8.3,0,15,6.7,15,15s-6.7,15-15,15h-22.5c-8.3,0-15-6.7-15-15
		S159.9,234.2,168.2,234.2z M168.2,621.101h22.5c8.3,0,15,6.699,15,15c0,8.3-6.7,15-15,15h-22.5c-8.3,0-15-6.7-15-15
		C153.2,627.8,159.9,621.101,168.2,621.101z M122.4,289.8c0-8.3,6.7-15,15-15c8.3,0,15,6.7,15,15v22.5c0,8.3-6.7,15-15,15
		c-8.3,0-15-6.7-15-15V289.8z M122.4,370.2c0-8.3,6.7-15,15-15c8.3,0,15,6.7,15,15v43.5c0,8.3-6.7,15-15,15c-8.3,0-15-6.7-15-15
		V370.2z M122.4,471.601c0-8.301,6.7-15,15-15c8.3,0,15,6.699,15,15V515c0,8.3-6.7,15-15,15c-8.3,0-15-6.7-15-15V471.601z
		 M122.4,572.9c0-8.3,6.7-15,15-15c8.3,0,15,6.7,15,15v22.5c0,8.3-6.7,15-15,15c-8.3,0-15-6.7-15-15V572.9z"/>
	<path d="M953.2,113.2h-926c-15,0-27.2,12.4-27.2,27.7v603.3c0,15.3,12.2,27.7,27.2,27.7h926c15,0,27.2-12.4,27.2-27.7V141
		C980.4,125.7,968.2,113.2,953.2,113.2z M950,741.7H30.4V143.6h919.7L950,741.7L950,741.7z"/>
	<path d="M685.3,867.2c6.101,0,11-4.9,11-11v-84.6H284.1v84.6c0,6.1,4.9,11,11,11H685.3z"/>
</g>
<g>
</g>
<g>
</g>
<g>
</g>
<g>
</g>
<g>
</g>
<g>
</g>
<g>
</g>
<g>
</g>
<g>
</g>
<g>
</g>
<g>
</g>
<g>
</g>
<g>
</g>
<g>
</g>
<g>
</g>
</svg>
