<?xml version="1.0" encoding="iso-8859-1"?>
<!-- Generator: Adobe Illustrator 18.1.1, SVG Export Plug-In . SVG Version: 6.00 Build 0)  -->
<svg version="1.1" id="Capa_1" xmlns="http://www.w3.org/2000/svg" xmlns:xlink="http://www.w3.org/1999/xlink" x="0px" y="0px"
	 viewBox="0 0 456.556 456.556" style="enable-background:new 0 0 456.556 456.556;" xml:space="preserve">
<g>
	<path d="M228.278,400.854c-95.158,0-172.579-77.418-172.579-172.576S133.12,55.702,228.278,55.702s172.579,77.418,172.579,172.576
		S323.436,400.854,228.278,400.854z M228.278,82.558c-80.352,0-145.723,65.371-145.723,145.72s65.371,145.72,145.723,145.72
		s145.723-65.371,145.723-145.72S308.63,82.558,228.278,82.558z"/>
	<path d="M228.278,319.687c-50.404,0-91.409-41.005-91.409-91.409s41.005-91.409,91.409-91.409s91.409,41.005,91.409,91.409
		S278.682,319.687,228.278,319.687z M228.278,163.725c-35.592,0-64.553,28.958-64.553,64.553s28.961,64.553,64.553,64.553
		s64.553-28.958,64.553-64.553S263.869,163.725,228.278,163.725z"/>
	<path d="M228.278,82.551c-7.413,0-13.428-6.011-13.428-13.428V13.428C214.85,6.011,220.865,0,228.278,0s13.428,6.011,13.428,13.428
		v55.695C241.706,76.54,235.691,82.551,228.278,82.551z"/>
	<path d="M228.278,456.556c-7.413,0-13.428-6.011-13.428-13.428v-55.702c0-7.417,6.015-13.428,13.428-13.428
		s13.428,6.011,13.428,13.428v55.702C241.706,450.545,235.691,456.556,228.278,456.556z"/>
	<path d="M69.092,241.706H13.428C6.015,241.706,0,235.695,0,228.278s6.015-13.428,13.428-13.428h55.664
		c7.413,0,13.428,6.011,13.428,13.428S76.505,241.706,69.092,241.706z"/>
	<path d="M443.128,241.706h-55.699c-7.413,0-13.428-6.011-13.428-13.428s6.015-13.428,13.428-13.428h55.699
		c7.413,0,13.428,6.011,13.428,13.428S450.541,241.706,443.128,241.706z"/>
</g>
<g>
</g>
<g>
</g>
<g>
</g>
<g>
</g>
<g>
</g>
<g>
</g>
<g>
</g>
<g>
</g>
<g>
</g>
<g>
</g>
<g>
</g>
<g>
</g>
<g>
</g>
<g>
</g>
<g>
</g>
</svg>
