<?xml version="1.0" encoding="iso-8859-1"?>
<!-- Generator: Adobe Illustrator 16.0.0, SVG Export Plug-In . SVG Version: 6.00 Build 0)  -->
<!DOCTYPE svg PUBLIC "-//W3C//DTD SVG 1.1//EN" "http://www.w3.org/Graphics/SVG/1.1/DTD/svg11.dtd">
<svg version="1.1" id="Capa_1" xmlns="http://www.w3.org/2000/svg" xmlns:xlink="http://www.w3.org/1999/xlink" x="0px" y="0px"
	 width="477.435px" height="477.435px" viewBox="0 0 477.435 477.435" style="enable-background:new 0 0 477.435 477.435;"
	 xml:space="preserve">
<g>
	<g id="Layer_2_28_">
		<path d="M370.617,149.412l20.864-29.464c3.79-5.351,2.524-12.751-2.826-16.538l-31.463-22.281
			c-5.346-3.78-12.747-2.515-16.538,2.828l-21.376,30.198c-15.786-7.395-32.729-12.693-50.498-15.514V86.363
			c0-7.862,6.438-14.296,14.297-14.296h7.894c7.859,0,14.293-6.433,14.293-14.288v-43.48C305.264,6.441,298.83,0,290.971,0h-104.5
			c-7.87,0-14.295,6.441-14.295,14.299v43.479c0,7.855,6.425,14.288,14.295,14.288h7.887c7.866,0,14.296,6.434,14.296,14.296V98.64
			c-19.034,3.028-37.14,8.891-53.864,17.127L133.604,85.86c-3.789-5.35-11.188-6.608-16.536-2.828l-31.463,22.282
			c-5.347,3.788-6.612,11.188-2.824,16.542l21.361,30.169C69.557,186.538,48.13,234.24,48.13,286.852
			c0,105.084,85.498,190.583,190.59,190.583c105.09,0,190.585-85.499,190.585-190.583
			C429.305,232.896,406.769,184.117,370.617,149.412z M238.72,431.698c-79.871,0-144.85-64.983-144.85-144.847
			c0-79.869,64.979-144.848,144.85-144.848c79.867,0,144.844,64.979,144.844,144.848
			C383.563,366.715,318.587,431.698,238.72,431.698z"/>
	</g>
</g>
<g>
</g>
<g>
</g>
<g>
</g>
<g>
</g>
<g>
</g>
<g>
</g>
<g>
</g>
<g>
</g>
<g>
</g>
<g>
</g>
<g>
</g>
<g>
</g>
<g>
</g>
<g>
</g>
<g>
</g>
</svg>
