<?xml version="1.0" encoding="iso-8859-1"?>
<!-- Generator: Adobe Illustrator 18.1.1, SVG Export Plug-In . SVG Version: 6.00 Build 0)  -->
<svg version="1.1" id="Capa_1" xmlns="http://www.w3.org/2000/svg" xmlns:xlink="http://www.w3.org/1999/xlink" x="0px" y="0px"
	 viewBox="0 0 370.375 370.375" style="enable-background:new 0 0 370.375 370.375;" xml:space="preserve">
<g>
	<g id="Layer_5_47_">
		<g>
			<path d="M185.188,204.304c-47.906,0-93.083-6.424-127.208-18.086C20.049,173.253,0,155.404,0,134.597
				c0-20.605,20.515-39.504,57.766-53.213c34.745-12.787,79.998-19.83,127.422-19.83c47.423,0,92.677,7.043,127.421,19.83
				c37.25,13.709,57.766,32.607,57.766,53.213c0,20.807-20.049,38.656-57.98,51.621C278.27,197.88,233.094,204.304,185.188,204.304z
				 M185.188,81.048c-101.146,0-165.694,31.715-165.694,53.549c0,20.968,63.036,50.213,165.694,50.213
				s165.693-29.245,165.693-50.213C350.881,112.763,286.334,81.048,185.188,81.048z"/>
			<path d="M185.188,164.686c-33.741,0-65.299-4.072-88.861-11.466c-24.134-7.572-30.51-15.725-30.51-18.978
				s6.376-13.362,30.51-20.935c23.562-7.393,55.12-12.442,88.861-12.442c33.742,0,65.3,5.05,88.861,12.442
				c24.133,7.572,30.51,17.682,30.51,20.935c0,3.253-6.377,11.405-30.51,18.978C250.489,160.614,218.93,164.686,185.188,164.686z"/>
			<path d="M5.351,179.955c-2.096-1.887-3.811-1.125-3.811,1.697v85.611c0,2.82,2.308,5.129,5.13,5.129h6.156
				c2.821,0,5.13-2.309,5.13-5.129v-72.631c0-2.82-1.882-6.467-4.183-8.1L5.351,179.955z"/>
			<path d="M185.188,224.667c-2.745,0-3.079-0.004-3.079-0.004c-2.821-0.033-5.129,2.246-5.129,5.068v73.959
				c0,2.822,2.309,5.131,5.13,5.131h6.156c2.822,0,5.131-2.309,5.131-5.131v-73.959c0-2.822-2.309-5.102-5.131-5.068
				C188.266,224.664,187.934,224.667,185.188,224.667z"/>
			<path d="M357.872,185.531c-2.25,1.705-4.088,5.406-4.088,8.229v73.504c0,2.82,2.307,5.129,5.129,5.129h6.156
				c2.82,0,5.129-2.309,5.129-5.129v-85.939c0-2.822-1.781-3.664-3.962-1.871L357.872,185.531z"/>
		</g>
	</g>
</g>
<g>
</g>
<g>
</g>
<g>
</g>
<g>
</g>
<g>
</g>
<g>
</g>
<g>
</g>
<g>
</g>
<g>
</g>
<g>
</g>
<g>
</g>
<g>
</g>
<g>
</g>
<g>
</g>
<g>
</g>
</svg>
