<?xml version="1.0" encoding="iso-8859-1"?>
<!-- Generator: Adobe Illustrator 16.0.0, SVG Export Plug-In . SVG Version: 6.00 Build 0)  -->
<!DOCTYPE svg PUBLIC "-//W3C//DTD SVG 1.1//EN" "http://www.w3.org/Graphics/SVG/1.1/DTD/svg11.dtd">
<svg version="1.1" id="Capa_1" xmlns="http://www.w3.org/2000/svg" xmlns:xlink="http://www.w3.org/1999/xlink" x="0px" y="0px"
	 width="571.316px" height="571.315px" viewBox="0 0 571.316 571.315" style="enable-background:new 0 0 571.316 571.315;"
	 xml:space="preserve">
<g>
	<path d="M159.858,176.916c0,26.289-21.312,47.6-47.6,47.6c-26.289,0-47.6-21.311-47.6-47.6c0-26.289,21.311-47.6,47.6-47.6
		C138.546,129.316,159.858,150.627,159.858,176.916z M411.458,176.916c0,26.289,21.312,47.6,47.601,47.6
		c26.288,0,47.6-21.311,47.6-47.6c0-26.289-21.312-47.6-47.6-47.6C432.769,129.316,411.458,150.627,411.458,176.916z
		 M146.258,394.516V281.942c0-20.448-16.579-37.026-37.026-37.026h-0.748c-20.448,0-37.026,16.578-37.026,37.026v119.374
		c0,22.535,18.265,40.801,40.8,40.801h61.2c7.514,0,13.6,6.086,13.6,13.6v95.2c0,11.268,9.132,20.399,20.4,20.399h6.8
		c11.268,0,20.4-9.132,20.4-20.399V435.315c0-22.535-18.265-40.8-40.8-40.8H146.258z M462.832,244.916h-0.748
		c-20.447,0-37.025,16.578-37.025,37.026v112.574h-47.601c-22.535,0-40.8,18.265-40.8,40.8v112.438
		c0,13.015,10.547,23.562,23.562,23.562h0.476c13.015,0,23.562-10.547,23.562-23.562v-92.038c0-7.514,6.086-13.6,13.601-13.6h61.2
		c22.535,0,40.8-18.266,40.8-40.801V281.942C499.858,261.494,483.279,244.916,462.832,244.916z M397.858,346.916v-20.4
		c0-3.753-3.047-6.8-6.8-6.8h-210.8c-3.754,0-6.8,3.047-6.8,6.8v20.4c0,3.753,3.046,6.8,6.8,6.8h210.8
		C394.811,353.716,397.858,350.669,397.858,346.916z M267.305,0c-49.572,0-89.753,31.804-89.753,71.033
		c0,23.372,14.328,44.043,36.339,56.991c-2.156,11.805-9.01,25.71-18.591,35.292c23.406-1.748,44.003-8.459,57.494-22.263
		c4.739,0.612,9.567,1.013,14.518,1.013c49.572,0,89.753-31.804,89.753-71.033C357.065,31.804,316.87,0,267.305,0z M225.226,85.055
		c-7.745,0-14.021-6.276-14.021-14.021s6.276-14.022,14.021-14.022s14.021,6.277,14.021,14.022S232.971,85.055,225.226,85.055z
		 M267.305,85.055c-7.746,0-14.022-6.276-14.022-14.021s6.276-14.022,14.022-14.022c7.745,0,14.021,6.277,14.021,14.022
		S275.05,85.055,267.305,85.055z M309.376,85.055c-7.745,0-14.021-6.276-14.021-14.021s6.276-14.022,14.021-14.022
		s14.021,6.277,14.021,14.022S317.122,85.055,309.376,85.055z"/>
</g>
<g>
</g>
<g>
</g>
<g>
</g>
<g>
</g>
<g>
</g>
<g>
</g>
<g>
</g>
<g>
</g>
<g>
</g>
<g>
</g>
<g>
</g>
<g>
</g>
<g>
</g>
<g>
</g>
<g>
</g>
</svg>
