<?xml version="1.0" encoding="iso-8859-1"?>
<!-- Generator: Adobe Illustrator 16.0.0, SVG Export Plug-In . SVG Version: 6.00 Build 0)  -->
<!DOCTYPE svg PUBLIC "-//W3C//DTD SVG 1.1//EN" "http://www.w3.org/Graphics/SVG/1.1/DTD/svg11.dtd">
<svg version="1.1" id="Capa_1" xmlns="http://www.w3.org/2000/svg" xmlns:xlink="http://www.w3.org/1999/xlink" x="0px" y="0px"
	 width="519.693px" height="519.693px" viewBox="0 0 519.693 519.693" style="enable-background:new 0 0 519.693 519.693;"
	 xml:space="preserve">
<g>
	<g>
		<path d="M267.385,103.341c27.808-9.897,42.075-40.478,32.255-67.979c-10.012-27.703-40.431-42.219-68.19-32.178
			c-27.75,9.763-41.989,40.439-32.216,68.18C209.168,98.837,239.711,113.334,267.385,103.341z"/>
		<path d="M51.015,296.542c1.348,2.678,2.132,4.935,3.662,6.675c2.353,4.408,5.374,8.435,8.817,11.915
			c0.841,0.688,1.625,1.176,2.467,1.864l45.499,55.281l-43.729,96.725c-7.602,16.734-0.201,36.404,16.773,44.035
			c16.62,7.621,36.404,0.201,43.873-16.629l52.374-115.42c0.688-1.74,0.631-3.261,1.119-4.857c0.727-2.4,1.492-4.6,1.587-6.971
			c0.019-2.229-0.296-4.274-0.612-6.426c-0.297-2.047-0.412-4.256-1.1-6.178c-0.803-2.257-2.189-4.236-3.309-6.407
			c20.598,8.281,40.191,16.495,49.629,20.378c6.034,25.762,28.841,123.691,28.869,123.901c4.447,17.614,21.908,28.478,39.837,24.413
			c17.834-4.398,29.061-22.166,25.006-40.076l-32.742-140.101c-2.467-10.528-9.657-19.201-19.832-23.323l-89.945-37.169
			l16.896-17.365l186.268,34.31c1.77,0.325,3.51,0.479,5.24,0.479c12.24,0,23.189-7.918,27.091-19.613
			c0.946-1.013,1.864-2.036,2.658-3.222c8.128-12.068,4.857-28.19-7.057-36.108l-182.94-122.305
			c-14.439-9.658-36.137-7.525-48.425,4.772L62.948,235.122c-13.655,13.923-18.809,33.277-15.204,51.083
			C48.203,289.791,49.322,293.291,51.015,296.542z M258.147,197.083l34.473,23.161l-48.348-8.903L258.147,197.083z"/>
		<circle cx="426.257" cy="154.663" r="46.808"/>
	</g>
</g>
<g>
</g>
<g>
</g>
<g>
</g>
<g>
</g>
<g>
</g>
<g>
</g>
<g>
</g>
<g>
</g>
<g>
</g>
<g>
</g>
<g>
</g>
<g>
</g>
<g>
</g>
<g>
</g>
<g>
</g>
</svg>
