<?xml version="1.0" encoding="iso-8859-1"?>
<!-- Generator: Adobe Illustrator 18.1.1, SVG Export Plug-In . SVG Version: 6.00 Build 0)  -->
<svg version="1.1" id="Capa_1" xmlns="http://www.w3.org/2000/svg" xmlns:xlink="http://www.w3.org/1999/xlink" x="0px" y="0px"
	 viewBox="0 0 270 270" style="enable-background:new 0 0 270 270;" xml:space="preserve">
<path color-rendering="auto" image-rendering="auto" shape-rendering="auto" color-interpolation="sRGB" d="M135,0
	C60.501,0,0,60.501,0,135s60.501,135,135,135s135-60.501,135-135S209.499,0,135,0L135,0z M135,10c8.238,0,16.286,0.803,24.076,2.32
	C107.503,26.087,68.229,56.884,36.088,91.793c-4.713-3.12-9.391-6.586-14.025-10.469C42.127,39.132,85.125,10,135,10z
	 M179.309,18.074c11.844,4.484,22.828,10.709,32.635,18.373c-44.553,12-88.155,40.126-125.668,78.328
	c-14.074-4.542-27.939-9.86-41.512-17.635C79.53,59.724,121.894,28.213,179.309,18.074z M221.209,44.443
	c7.075,6.737,13.356,14.297,18.699,22.525c-43.361,12.714-78.066,34.361-106.256,62.311c-12.308-4.139-24.523-7.533-36.598-11.154
	C134.659,80.914,178.054,54.399,221.209,44.443z M245.17,75.854C254.631,93.458,260,113.594,260,135
	c0,30.896-11.183,59.151-29.721,80.953c12.562-49.222,0.949-88.962-7.951-132.492C229.647,80.638,237.251,78.093,245.17,75.854z
	 M212.908,87.313c10.01,48.491,22.157,89.067,2.275,143.617c-10.24,8.566-21.871,15.524-34.514,20.481
	c12.195-44.117,11.962-94.034-2.211-145.607C189.147,98.849,200.596,92.657,212.908,87.313L212.908,87.313z M17.992,90.914
	c36.704,29.647,75.513,35.486,112.174,47.746c0.65,13.172,1.236,26.259,1.236,39.168c-51.494-13.46-89.242-31.515-119.582-64.185
	C13.17,105.79,15.253,98.191,17.992,90.914L17.992,90.914z M169.711,111.783c13.533,51.416,12.673,100.668-0.613,143.52
	C158.261,258.363,146.823,260,135,260c-2.315,0-4.614-0.067-6.898-0.191c15.932-39.504,14.054-81.547,11.998-122.838
	C149.25,127.836,159.086,119.412,169.711,111.783L169.711,111.783z M10.299,126.439c31.42,31.094,70.444,48.706,120.957,61.68
	c-0.38,13.943-1.605,27.66-4.379,41.039c-33.631-6.738-75.696-17.996-112.801-62.365C11.42,156.643,10,145.989,10,135
	C10,132.122,10.108,129.269,10.299,126.439L10.299,126.439z M23.131,190.857c34.621,32.155,72.084,42.112,101.432,48.033
	c-1.817,6.736-4.073,13.381-6.863,19.916C76.154,253.067,41.169,226.955,23.131,190.857L23.131,190.857z"/>
<g>
</g>
<g>
</g>
<g>
</g>
<g>
</g>
<g>
</g>
<g>
</g>
<g>
</g>
<g>
</g>
<g>
</g>
<g>
</g>
<g>
</g>
<g>
</g>
<g>
</g>
<g>
</g>
<g>
</g>
</svg>
